<ttFont>
<head>
    <!-- Most of this table will be recalculated by the compiler -->
    <tableVersion value="1.0"/>
    <fontRevision value="1.0"/>
    <checkSumAdjustment value="0x7551c378"/>
    <magicNumber value="0x5f0f3cf5"/>
    <flags value="00000000 00000011"/>
    <unitsPerEm value="1000"/>
    <created value="Wed Jul 15 21:01:26 2015"/>
    <modified value="Thu Jul 16 15:34:21 2015"/>
    <xMin value="-307"/>
    <yMin value="-256"/>
    <xMax value="1124"/>
    <yMax value="856"/>
    <macStyle value="00000000 00000000"/>
    <lowestRecPPEM value="3"/>
    <fontDirectionHint value="2"/>
    <indexToLocFormat value="0"/>
    <glyphDataFormat value="0"/>
  </head>
          <CharString index="0">
            rmoveto
            -106 callgsubr
            16 -17 rcurveline
            57 46 66 29 25 25 rrcurveto
            return
          </CharString>
          <CharString index="1">
            -107 callgsubr
            endchar
          </CharString>
          <CharString index="2">
            -17 -10 19 33 hvcurveto
            211 vlineto
            102 -52 49 -109 -111 -54 -45 -41 -19 15 -18 27 vhcurveto
            62 -42 98 92 hhcurveto
            61 31 -33 -70 hvcurveto
            -63 vlineto
            -192 -4 -78 -39 -96 vvcurveto
            return
          </CharString>
          <CharString index="3">
            -101 callgsubr
            -401 223 -42 callgsubr
          </CharString>
          <CharString index="4">
            rmoveto
            -98 callgsubr
            hintmask 01111110
            -54 callgsubr
            hintmask 10111110
            -60 callgsubr
            hintmask 01111110
            -88 callsubr
          </CharString>
          <CharString index="5">
            rmoveto
            13 callgsubr
            -82 callsubr
            vhcurveto
            -214 -198 rmoveto
            -81 callgsubr
            endchar
          </CharString>
          <CharString index="6">
            -97 callsubr
            464 hlineto
            -10 callsubr
            return
          </CharString>
          <CharString index="7">
            rmoveto
            21 callsubr
            103 -147 -75 callsubr
            vhcurveto
            -105 4 rmoveto
            12 callsubr
            -62 callsubr
            vhcurveto
            endchar
          </CharString>
          <CharString index="8">
            -100 callgsubr
            endchar
          </CharString>
          <CharString index="9">
            -101 callsubr
            endchar
          </CharString>
          <CharString index="10">
            -96 callsubr
            -65 callgsubr
            return
          </CharString>
          <CharString index="11">
            -146 -91 callsubr
            -5 180 rlineto
            -464 return
          </CharString>
          <CharString index="12">
            713 -107 callsubr
            return
          </CharString>
          <CharString index="13">
            -81 callsubr
            24 -16 rlineto
            -74 callsubr
            return
          </CharString>
          <CharString index="14">
            rlineto
            -63 -26 185 hlineto
            -76 callgsubr
            -58 hlineto
            75 194 rlineto
            209 hlineto
            75 -194 rlineto
            -71 -26 return
          </CharString>
          <CharString index="15">
            -100 -3 -59 -51 -54 hhcurveto
            -49 -43 31 83 hvcurveto
            278 -7 callgsubr
            -237 vlineto
            -140 70 -32 73 58 60 35 77 29 vhcurveto
            return
          </CharString>
          <CharString index="16">
            269 202 29 -202 250 146 hlineto
            67 35 -59 -48 14 hvcurveto
            14 -47 rlineto
            20 hlineto
            return
          </CharString>
          <CharString index="17">
            rmoveto
            -40 -33 29 63 78 61 15 125 2 hvcurveto
            -80 vlineto
            -69 -15 -55 -38 -43 hhcurveto
            endchar
          </CharString>
          <CharString index="18">
            343 84 26 -249 -26 75 -349 vlineto
            -166 88 -69 145 155 69 79 165 vhcurveto
            340 75 vlineto
            return
          </CharString>
          <CharString index="19">
            -285 -64 -90 callsubr
          </CharString>
          <CharString index="20">
            -17 392 -84 callsubr
            return
          </CharString>
          <CharString index="21">
            rmoveto
            27 22 21 29 28 -22 22 -27 -29 -22 -22 -28 -29 22 -21 29 hvcurveto
            return
          </CharString>
          <CharString index="22">
            521 -102 callgsubr
            return
          </CharString>
          <CharString index="23">
            rmoveto
            63 33 -48 -52 -56 -35 -11 -79 2 hvcurveto
            -101 3 rlineto
            111 4 53 51 62 hhcurveto
            return
          </CharString>
          <CharString index="24">
            -80 callsubr
            -209 159 -105 141 return
          </CharString>
          <CharString index="25">
            -108 -111 -76 -142 -149 108 -78 108 108 109 79 144 return
          </CharString>
          <CharString index="26">
            15 -3 10 -5 -10 vvcurveto
            -19 -22 -33 -27 -28 vhcurveto
            return
          </CharString>
          <CharString index="27">
            120 42 -52 -127 37 hvcurveto
            30 hlineto
            -5 194 -87 -18 rlineto
            21 -42 -46 10 -46 -26 callsubr
            return
          </CharString>
          <CharString index="28">
            483 -96 callgsubr
            return
          </CharString>
          <CharString index="29">
            rmoveto
            -47 callgsubr
            hintmask 11011000
            2 callsubr
            hintmask 10111000
            -62 callgsubr
            hintmask 11011000
            -6 callsubr
            hintmask 10111000
            31 callsubr
          </CharString>
          <CharString index="30">
            rmoveto
            -29 -96 rlineto
            -44 -13 -24 -41 -61 hhcurveto
            -229 hlineto
            373 553 rlineto
            21 -445 vlineto
            -9 -181 rlineto
            20 hlineto
            47 90 rlineto
            39 21 23 26 37 hhcurveto
            197 hlineto
            -381 -554 rlineto
            -20 493 vlineto
            2 207 rlineto
            endchar
          </CharString>
          <CharString index="31">
            rmoveto
            -57 callsubr
            -81 callsubr
            return
          </CharString>
          <CharString index="32">
            -66 callsubr
            -24 callsubr
            return
          </CharString>
          <CharString index="33">
            45 46 24 56 45 vvcurveto
            42 -21 31 -40 return
          </CharString>
          <CharString index="34">
            613 -96 callgsubr
            return
          </CharString>
          <CharString index="35">
            rmoveto
            55 44 65 28 24 25 rrcurveto
            -49 callgsubr
            rrcurveto
            158 -16 -68 callgsubr
            return
          </CharString>
          <CharString index="36">
            -63 -10 26 297 30 181 76 hstemhm
            35 106.199996948 -89.1999969482 22 292 90 hintmask 11101100
            276 343 rmoveto
            -20 -22 -3 -5 -21 hvcurveto
            175 189 52 56 rlineto
            20 -387 vlineto
            -2 -174 38 callgsubr
            1 41 hhcurveto
            175 hlineto
            -2 -1 -187 -207 22 -18 rlineto
            10 24 22 5 21 hhcurveto
            76 45 -52 -88 -77 -49 -80 -108 hvcurveto
            hintmask 11110100
            -122 37 callgsubr
            -78 91 -43 97 112 121 58 129 hvcurveto
            hintmask 11101100
            111 -75 55 -105 vhcurveto
            endchar
          </CharString>
          <CharString index="37">
            -127 -317 -135 317 rlineto
            64 26 -195 -26 46 hlineto
            183 -399 rlineto
            -113 -49 -38 -46 -46 -35 25 66 -54 hhcurveto
            -26 -14 -15 -19 -37 40 -26 46 62 61 36 154 60 hvcurveto
            148 365 rlineto
            28 10 5 21 callgsubr
          </CharString>
          <CharString index="38">
            483 -88 callgsubr
            return
          </CharString>
          <CharString index="39">
            -29 -24 -24 -31 -29 22 -17 23 -5 return
          </CharString>
          <CharString index="40">
            22 -5 4 -19 vhcurveto
            -66 callgsubr
            return
          </CharString>
          <CharString index="41">
            -59 callgsubr
            -205 148 -109 149 return
          </CharString>
          <CharString index="42">
            -4 100 -64 callgsubr
            227 -54 callsubr
            return
          </CharString>
          <CharString index="43">
            28 201 -56 callsubr
            return
          </CharString>
          <CharString index="44">
            -4 callsubr
            -20 vhcurveto
            return
          </CharString>
          <CharString index="45">
            -105 -90 72 -45 callgsubr
            105 88 -65 -213 return
          </CharString>
          <CharString index="46">
            -61 0 76 507 27 hstemhm
            30 52 -44 109.13999939 198.86000061 102 -16 22 hintmask 00000000
            hintmask 11100100
            432 174 rmoveto
            -18 -56 rlineto
            -41 -13 -24 -1 -41 hhcurveto
            -254 hlineto
            hintmask 11101000
            132 366 75 184 vvcurveto
            98 -104 45 -102 vhcurveto
            hintmask 11011000
            -102 -102 -45 -84 -30 18 -23 35 hvcurveto
            101 -98 155 139 hhcurveto
            79 34 -48 -67 hvcurveto
            hintmask 11101000
            -163 -316 -78 -207 vvcurveto
            -20 vlineto
            hintmask 11100100
            423 hlineto
            2 174 rlineto
            endchar
          </CharString>
          <CharString index="47">
            -107 -10 -64 callsubr
            return
          </CharString>
          <CharString index="48">
            -55 callgsubr
            hstem
            return
          </CharString>
          <CharString index="49">
            570 -91 callgsubr
            return
          </CharString>
          <CharString index="50">
            -74 callsubr
            -68 callsubr
            vhcurveto
            return
          </CharString>
          <CharString index="51">
            -28 callgsubr
            163.5 25 return
          </CharString>
          <CharString index="52">
            rmoveto
            -206 -26 96 -346 hlineto
            -150 -68 -60 -100 return
          </CharString>
          <CharString index="53">
            vlineto
            -76 callgsubr
            return
          </CharString>
          <CharString index="54">
            -12 callsubr
            548 83 26 -39 callsubr
            444 hlineto
            5 200 rlineto
            return
          </CharString>
          <CharString index="55">
            -38 hlineto
            -161 258 rlineto
            51 207 -18 265 -242 hhcurveto
            -299 -65 callgsubr
            259 26 -86 249 return
          </CharString>
          <CharString index="56">
            -81 -90 -52 -157 hvcurveto
            -16 -71 -26 71 -321 vlineto
            -31 callgsubr
            246 -54 callsubr
            -66 373 110 26 -110 6 hlineto
            155 24 39 46 vhcurveto
            return
          </CharString>
          <CharString index="57">
            -89 -10 31 -31 40 187 27 166 25 return
          </CharString>
          <CharString index="58">
            hlineto
            -63 callsubr
            return
          </CharString>
          <CharString index="59">
            -5 callsubr
            hstem
            12 callgsubr
            vstem
            return
          </CharString>
          <CharString index="60">
            44 44 -10 -18 30 hvcurveto
            -58 callgsubr
            vhcurveto
            return
          </CharString>
          <CharString index="61">
            28 23 23 28 29 -23 23 -28 -28 -23 -23 -29 -28 23 -23 28 hvcurveto
            return
          </CharString>
          <CharString index="62">
            rmoveto
            67 40 41 53 6 callsubr
            hvcurveto
            2 160 rmoveto
            8 callgsubr
            61 callgsubr
            hvcurveto
            return
          </CharString>
          <CharString index="63">
            134 -14 callgsubr
            385 105 vstem
            return
          </CharString>
          <CharString index="64">
            -48 callsubr
            473 213 -102 callsubr
          </CharString>
          <CharString index="65">
            rmoveto
            46 callgsubr
            -30 hlineto
            -67 callgsubr
            endchar
          </CharString>
          <CharString index="66">
            -76 -26 282 hlineto
            148 150 102 46 callsubr
            93 -147 hvcurveto
            -574 vmoveto
            -119 return
          </CharString>
          <CharString index="67">
            -50 callsubr
            -5 callgsubr
            return
          </CharString>
          <CharString index="68">
            -256 -65 callgsubr
            return
          </CharString>
          <CharString index="69">
            -26 73 -548 -73 -26 205 hlineto
            44 callsubr
            return
          </CharString>
          <CharString index="70">
            26 548 26 return
          </CharString>
          <CharString index="71">
            rmoveto
            -80 55 -36 58 50 47 26 49 vhcurveto
            109 -237 -22 146 vvcurveto
            80 71 30 77 return
          </CharString>
          <CharString index="72">
            rmoveto
            35 callgsubr
            -139 98 -79 116 56 callsubr
            hvcurveto
            -26 6 rlineto
            -37 callgsubr
            vhcurveto
            endchar
          </CharString>
          <CharString index="73">
            -182 4 rlineto
            -31 1 -16 13 23 vvcurveto
            17 14 17 34 vhcurveto
            86 -1 rlineto
            2 hlineto
            94 86 62 100 52 -23 41 -35 27 hvcurveto
            return
          </CharString>
          <CharString index="74">
            -15 callsubr
            hstemhm
            97 80 208 80 hintmask 01111000
            return
          </CharString>
          <CharString index="75">
            -25 -17 17 33 37 29 49 67 26 hvcurveto
            return
          </CharString>
          <CharString index="76">
            -38 hlineto
            -160 247 94 88 rlineto
            22 23 18 16 23 hhcurveto
            30 2 1 25 hvcurveto
            -168 -26 73 hlineto
            -197 -181 rlineto
            432 14 callsubr
            -546 vlineto
            -31 callgsubr
            222 -54 callsubr
            -42 152 hlineto
            return
          </CharString>
          <CharString index="77">
            23 -5 3 -19 vhcurveto
            return
          </CharString>
          <CharString index="78">
            40 34 28 79 16 hvcurveto
            -21 5 rlineto
            -40 -11 -19 -17 -27 -40 -25 59 -57 hhcurveto
            return
          </CharString>
          <CharString index="79">
            -51 callsubr
            37 callsubr
            return
          </CharString>
          <CharString index="80">
            hstem
            118 -15 callgsubr
            return
          </CharString>
          <CharString index="81">
            hhcurveto
            -59 callgsubr
            return
          </CharString>
          <CharString index="82">
            -163 -294 rmoveto
            -74 -21 62 75 75 21 58 74 74 20 -58 -75 -75 -20 -62 -74 hvcurveto
            -74 -177 rmoveto
            return
          </CharString>
          <CharString index="83">
            148 150 112 198 return
          </CharString>
          <CharString index="84">
            17.5 return
          </CharString>
          <CharString index="85">
            rmoveto
            26 -150 116 vlineto
            -80 -21 rlineto
            -95 -71 -26 71 -281 vlineto
            return
          </CharString>
          <CharString index="86">
            rmoveto
            4 callsubr
            -32 callsubr
            return
          </CharString>
          <CharString index="87">
            154 -2 rlineto
            60 -1 30 -10 -40 vvcurveto
            -48 -82 -25 -87 -87 -43 36 43 16 7 19 13 17 vhcurveto
            return
          </CharString>
          <CharString index="88">
            -23 callsubr
            vstem
            return
          </CharString>
          <CharString index="89">
            29 45 45 78 37 50 -18 17 rcurveline
            -51 -55 -85 -1 callgsubr
            85 -74 55 -56 18 16 rcurveline
            -36 48 -45 80 -30 45 rrcurveto
            return
          </CharString>
          <CharString index="90">
            rmoveto
            26 17 callgsubr
            vlineto
            15 callsubr
          </CharString>
          <CharString index="91">
            -56 -26 -51 -33 -62 hhcurveto
            -77 -59 76 124 110 38 83 90 return
          </CharString>
          <CharString index="92">
            -4 -10 43 -33 -9 callgsubr
            return
          </CharString>
          <CharString index="93">
            -2 callgsubr
            83 hlineto
            endchar
          </CharString>
          <CharString index="94">
            -22 -23 -10 -25 -22 vvcurveto
            -53 55 -47 111 153 64 63 64 62 -38 40 -88 2 vhcurveto
            return
          </CharString>
          <CharString index="95">
            rmoveto
            -19 -67 rlineto
            -50 -14 -30 -57 -67 hhcurveto
            -126 return
          </CharString>
          <CharString index="96">
            32 -17 52 -29 36 -25 return
          </CharString>
          <CharString index="97">
            5 180 rlineto
            -20 hlineto
            return
          </CharString>
          <CharString index="98">
            14 callgsubr
            hintmask 10111110
            29 callgsubr
            hintmask 01111110
            8 -103 rlineto
            147 hlineto
            -30 callsubr
            return
          </CharString>
          <CharString index="99">
            -122 -10 27 393 25 hstem
            40 90 194.36000061 94.6399993896 vstem
            return
          </CharString>
          <CharString index="100">
            rmoveto
            -26 86 vlineto
            -151 -291 -161 291 rlineto
            72 26 -224 -26 53 hlineto
            return
          </CharString>
          <CharString index="101">
            100 3 59 51 54 hhcurveto
            46 41 -36 -73 48 callgsubr
            return
          </CharString>
          <CharString index="102">
            -58 -10 25 395 25 return
          </CharString>
          <CharString index="103">
            22 -5 4 return
          </CharString>
          <CharString index="104">
            -139 -21 callsubr
            return
          </CharString>
          <CharString index="105">
            74 23 27 rrcurveto
            9 10 4 11 0 11 0 11 -5 10 9 flex1
            -27 29 return
          </CharString>
          <CharString index="106">
            160 -275 rlineto
            158 hlineto
            -30 callsubr
            return
          </CharString>
          <CharString index="107">
            11 callgsubr
            25 callsubr
            return
          </CharString>
          <CharString index="108">
            2 callgsubr
            256 -19 callsubr
            return
          </CharString>
          <CharString index="109">
            105 -65 57 -73 -57 -60 -34 -76 -29 vhcurveto
            return
          </CharString>
          <CharString index="110">
            49 0 31 callgsubr
            return
          </CharString>
          <CharString index="111">
            -16 -19 -20 -7 -16 hhcurveto
            return
          </CharString>
          <CharString index="112">
            27 22 22 27 27 -22 22 -27 -27 -22 -22 -27 -27 22 -22 27 hvcurveto
            return
          </CharString>
          <CharString index="113">
            19 callgsubr
            -53 38 -40 64 return
          </CharString>
          <CharString index="114">
            52 callgsubr
            hstem
            113 90 vstem
            return
          </CharString>
          <CharString index="115">
            -10 28 564 28 return
          </CharString>
          <CharString index="116">
            15 -28 -34 8 -35 hhcurveto
            -94 -87 -59 -100 -59 44 -48 49 -28 hvcurveto
            return
          </CharString>
          <CharString index="117">
            rmoveto
            -61 callgsubr
            return
          </CharString>
          <CharString index="118">
            18 callgsubr
            hstemhm
            107 80 return
          </CharString>
          <CharString index="119">
            -204 -85 -82 -105 return
          </CharString>
          <CharString index="120">
            -49 -42 13 23 -34 hvcurveto
            23 callgsubr
            return
          </CharString>
          <CharString index="121">
            -156 -26 76 return
          </CharString>
          <CharString index="122">
            43 callsubr
            hlineto
            endchar
          </CharString>
          <CharString index="123">
            -80 -190 27 126 80 73 24 270 25 -1 55 return
          </CharString>
          <CharString index="124">
            -546 hlineto
            -42 -34 -10 -42 vhcurveto
            return
          </CharString>
          <CharString index="125">
            38 13 -35 -32 -34 -15 -36 -36 return
          </CharString>
          <CharString index="126">
            10 25 hhcurveto
            14 3 11 15 hvcurveto
            return
          </CharString>
          <CharString index="127">
            48 58 16 25 37 hvcurveto
            91 -31 rlineto
            244 76 vlineto
            return
          </CharString>
          <CharString index="128">
            207 -148 return
          </CharString>
          <CharString index="129">
            -4 callgsubr
            53 callsubr
            return
          </CharString>
          <CharString index="130">
            -40 -26 -12 -38 vhcurveto
            return
          </CharString>
          <CharString index="131">
            48 callgsubr
            23 callsubr
            -47 callgsubr
            return
          </CharString>
          <CharString index="132">
            hstem
            105 90 332 35 vstem
            return
          </CharString>
          <CharString index="133">
            16 callsubr
            hstemhm
            60 85 -80 38 -28 36 return
          </CharString>
          <CharString index="134">
            435 rmoveto
            -28 -23 -23 -28 -29 23 -23 28 28 23 23 29 28 -23 23 -28 hvcurveto
            return
          </CharString>
          <CharString index="135">
            4 -59 callsubr
            508 21 vstem
            return
          </CharString>
          <CharString index="136">
            3 callsubr
            55 callsubr
            return
          </CharString>
          <CharString index="137">
            179 -16 -270 -160 hhcurveto
            return
          </CharString>
          <CharString index="138">
            23 callsubr
            endchar
          </CharString>
          <CharString index="139">
            -64 -24 -40 -41 -29 13 -32 29 -19 hvcurveto
            return
          </CharString>
          <CharString index="140">
            -41 -42 -22 -51 -41 vvcurveto
            -38 19 -28 36 return
          </CharString>
          <CharString index="141">
            rmoveto
            -50 300 50 vlineto
            return
          </CharString>
          <CharString index="142">
            7 -102 rlineto
            endchar
          </CharString>
          <CharString index="143">
            -10 40 -30 26 384 25 189 26 hstemhm
            40 90 237 81 return
          </CharString>
          <CharString index="144">
            57 -8 -81 47 hhcurveto
            27 15 17 20 return
          </CharString>
          <CharString index="145">
            27 21 22 28 26 -20 16 -20 4 return
          </CharString>
          <CharString index="146">
            -59 callsubr
            116 90 return
          </CharString>
          <CharString index="147">
            90 215 84 return
          </CharString>
          <CharString index="148">
            118 90 return
          </CharString>
          <CharString index="149">
            -43 callgsubr
            -12 15 rlineto
            return
          </CharString>
          <CharString index="150">
            -63 callsubr
            -58 548 return
          </CharString>
          <CharString index="151">
            -76 callgsubr
            -68 return
          </CharString>
          <CharString index="152">
            rmoveto
            40 26 -59 57 hhcurveto
            return
          </CharString>
          <CharString index="153">
            198 21 callsubr
            return
          </CharString>
          <CharString index="154">
            -46 215 hlineto
            return
          </CharString>
          <CharString index="155">
            236 -301 rlineto
            152 hlineto
            22 -6 4 -20 vhcurveto
            return
          </CharString>
          <CharString index="156">
            141 -220 rlineto
            138 hlineto
            -30 callsubr
            return
          </CharString>
          <CharString index="157">
            hstem
            106 80 return
          </CharString>
          <CharString index="158">
            -240 -11 30 380 26 return
          </CharString>
          <CharString index="159">
            rmoveto
            -18 callgsubr
            return
          </CharString>
          <CharString index="160">
            50 callsubr
            vstem
            return
          </CharString>
          <CharString index="161">
            -165 -155 865 hstem
            -10 401 vstem
            return
          </CharString>
          <CharString index="162">
            hstem
            5 615 vstem
            return
          </CharString>
          <CharString index="163">
            81 68 39 71 28 return
          </CharString>
          <CharString index="164">
            hintmask 0000000000000000
            return
          </CharString>
          <CharString index="165">
            100 83 100 return
          </CharString>
          <CharString index="166">
            80 66 26 57 callsubr
            return
          </CharString>
          <CharString index="167">
            26 hstemhm
            107 80 return
          </CharString>
          <CharString index="168">
            63 callsubr
            314 100 vstem
            return
          </CharString>
          <CharString index="169">
            200 hstem
            113 40 vstem
            90 return
          </CharString>
          <CharString index="170">
            26 hstem
            116 90 return
          </CharString>
          <CharString index="171">
            -136 781 hstem
            return
          </CharString>
          <CharString index="172">
            23 137 23 return
          </CharString>
          <CharString index="173">
            -213 -204 return
          </CharString>
        <CharString name=".notdef">
          -71 -254 69 33 47 33 23 33 47 33 60 33 24 56 22 34 23 33 37 33 27 34 36 34 26 33 37 33 67 hstem
          93 74 33 33 34 33 33 77 vstem
          410 746 rmoveto
          -317 -1000 317 hlineto
          -77 933 rmoveto
          -33 -66 -37 66 -33 -166 33 66 37 -65 33 vlineto
          99 -129 rmoveto
          -70 66 -34 -166 104 vlineto
          66 -34 rmoveto
          -33 -36 33 hlineto
          100 -61 rmoveto
          -33 -66 -70 -100 33 66 37 -66 33 vlineto
          166 -60 rmoveto
          -100 -166 34 133 66 vlineto
          33 -122 rmoveto
          -113 -166 113 33 -80 100 47 -33 -23 -34 56 vlineto
          100 -173 rmoveto
          -113 -166 113 vlineto
          133 -33 rmoveto
          -100 -47 100 hlineto
          33 -56 rmoveto
          -33 -32 vlineto
          -70 -47 rlineto
          102 -33 -166 33 hlineto
          70 47 rlineto
          -70 33 hlineto
          endchar
        </CharString>
        <CharString name="A">
          29 callsubr
          595 26 -104 callsubr
        </CharString>
        <CharString name="AE">
          588 0 31 callgsubr
          46 26 callgsubr
          hstem
          738 -15 callgsubr
          595 26 -101 callgsubr
          495 107 rmoveto
          -10 callgsubr
          -101 callsubr
          -910 69 -42 callgsubr
        </CharString>
        <CharString name="Aacute">
          29 callsubr
          400 -95 callsubr
          195 -687 -104 callsubr
        </CharString>
        <CharString name="Abreve">
          3 callsubr
          391 64 hstem
          187 20 204 21 vstem
          310 640 -46 callgsubr
          285 -614 -104 callsubr
        </CharString>
        <CharString name="Acircumflex">
          29 callsubr
          311 -69 callgsubr
          284 -674 -104 callsubr
        </CharString>
        <CharString name="Adieresis">
          3 callsubr
          402 100 hstem
          169 58 callsubr
          vstem
          220 -84 callgsubr
          193 -625 -104 callsubr
        </CharString>
        <CharString name="Agrave">
          29 callsubr
          379 -73 callsubr
          216 -587 -104 callsubr
        </CharString>
        <CharString name="Amacron">
          3 callsubr
          421 50 55 callsubr
          462 720 16 callgsubr
          133 -644 -104 callsubr
        </CharString>
        <CharString name="Aogonek">
          49 45 callgsubr
          194 29 hstem
          440 76 vstem
          613 -3 callsubr
          8 -49 callsubr
          -99 callgsubr
          175 hlineto
          -32 callgsubr
          -431 403 -42 callgsubr
        </CharString>
        <CharString name="Aring">
          3 callsubr
          335 21 137 23 hstem
          208 54 101 54 vstem
          595 26 rmoveto
          -32 hlineto
          -223 559 rlineto
          49 10 28 36 45 vvcurveto
          19 callgsubr
          -46 29 -36 49 -9 vhcurveto
          -218 -558 -93 callsubr
          224 -49 callsubr
          -333 647 rmoveto
          61 callgsubr
          8 callgsubr
          vhcurveto
          -68 -424 -42 callgsubr
        </CharString>
        <CharString name="Atilde">
          3 callsubr
          400 55 4 55 hstemhm
          5 615 hintmask 00000000
          hintmask 11011000
          248 708 45 callsubr
          hintmask 11101000
          -29 callsubr
          hintmask 11011000
          -8 callgsubr
          hintmask 11101000
          347 -682 -104 callsubr
        </CharString>
        <CharString name="B">
          33 0 26 286 27 235 26 hstemhm
          41 callsubr
          210.25 93.0099945068 -65.3899993896 103.75 hintmask 11110100
          404 330 rmoveto
          hintmask 11111000
          63 165 -23 207 -227 hhcurveto
          -284 -65 callgsubr
          hlineto
          hintmask 11110100
          287 hlineto
          270 33 285 45 -221 hvcurveto
          hintmask 11111000
          -115 244 rmoveto
          174 -6 -235 -160 hhcurveto
          -89 235 hlineto
          hintmask 11110100
          109 -548 rmoveto
          -109 286 114 1 1 hlineto
          -1 -1 rlineto
          171 -10 -286 -166 hhcurveto
          endchar
        </CharString>
        <CharString name="C">
          6 callgsubr
          487 26 -42 callsubr
        </CharString>
        <CharString name="Cacute">
          6 callgsubr
          273 683 -88 callgsubr
          230 -674 -42 callsubr
        </CharString>
        <CharString name="Ccaron">
          6 callgsubr
          332 701 -103 callgsubr
          224 -502 rmoveto
          -67 callgsubr
          46 callgsubr
          endchar
        </CharString>
        <CharString name="Ccedilla">
          50 20 callgsubr
          42 31 561 65 callgsubr
          228 75 88 -28 callgsubr
          vstem
          556 199 rmoveto
          -118 -25 -85 -60 -91 hhcurveto
          -105 -90 69 -45 callgsubr
          -80 callsubr
          -186 126 -103 126 -21 hvcurveto
          -39 -79 -73 callgsubr
          24 53 rlineto
          -1 7 8 0 8 hhcurveto
          48 47 12 24 37 hvcurveto
          46 callgsubr
          endchar
        </CharString>
        <CharString name="D">
          104 0 26 548 26 hstem
          116 90 314 100 vstem
          325 600 -25 callgsubr
        </CharString>
        <CharString name="Dcaron">
          104 0 26 548 61 callsubr
          329 -90 callgsubr
          -4 -31 -25 callgsubr
        </CharString>
        <CharString name="Dcroat">
          -50 callgsubr
        </CharString>
        <CharString name="E">
          -34 callgsubr
          470 133 -94 callgsubr
        </CharString>
        <CharString name="Eacute">
          -34 callgsubr
          380 -95 callsubr
          90 -580 -94 callgsubr
        </CharString>
        <CharString name="Ecaron">
          -34 callgsubr
          291 -90 callgsubr
          179 -498 -94 callgsubr
        </CharString>
        <CharString name="Ecircumflex">
          -34 callgsubr
          291 -69 callgsubr
          179 -567 -94 callgsubr
        </CharString>
        <CharString name="Edieresis">
          40 callgsubr
          51 100 hstemhm
          41 callsubr
          -59 58 callsubr
          52 -23 callsubr
          hintmask 00000000
          hintmask 11110111
          200 -84 callgsubr
          88 -518 rmoveto
          -10 callgsubr
          hintmask 11101011
          -98 callsubr
        </CharString>
        <CharString name="Edotaccent">
          40 callgsubr
          46 110 hstemhm
          41 callsubr
          27 109 140 -23 callsubr
          hintmask 00000000
          hintmask 11111110
          290 646 -74 callgsubr
          180 -513 rmoveto
          -10 callgsubr
          hintmask 11101010
          -98 callsubr
        </CharString>
        <CharString name="Egrave">
          -34 callgsubr
          359 -73 callsubr
          111 -480 -94 callgsubr
        </CharString>
        <CharString name="Emacron">
          40 callgsubr
          70 50 -27 callsubr
          442 720 16 callgsubr
          28 -537 -94 callgsubr
        </CharString>
        <CharString name="Eogonek">
          -32 45 callgsubr
          -26 180 115 26 callgsubr
          hstemhm
          41 callsubr
          110 76 90 -23 callsubr
          hintmask 00000000
          hintmask 10111111
          490 hmoveto
          9 hlineto
          -10 callsubr
          -14 -47 rlineto
          hintmask 11011111
          -10 callgsubr
          -97 callsubr
          414 hlineto
          -32 callgsubr
          -12 15 rlineto
          4 callsubr
          -25 -17 17 33 hvcurveto
          hintmask 10111111
          37 29 49 67 26 vhcurveto
          endchar
        </CharString>
        <CharString name="Eth">
          -50 callgsubr
        </CharString>
        <CharString name="F">
          -42 -44 callgsubr
          499 600 rmoveto
          -464 -65 callgsubr
          289 26 -116 -91 callsubr
          endchar
        </CharString>
        <CharString name="G">
          33 callgsubr
          hstemhm
          55 105 339 90 -38 -28 callgsubr
          hintmask 11111000
          665 270 rmoveto
          -22 callgsubr
          hintmask 11110100
          -83 callsubr
          hvcurveto
          hintmask 11111000
          20 callsubr
          endchar
        </CharString>
        <CharString name="Gbreve">
          33 callgsubr
          30 64 hstemhm
          55 105 67 20 204 21 27 90 -38 -28 callgsubr
          57 callsubr
          hintmask 1111111100000000
          350 640 -46 callgsubr
          315 -370 rmoveto
          hintmask 1110100100000000
          -22 callgsubr
          hintmask 1110100010000000
          -83 callsubr
          hvcurveto
          hintmask 1110100100000000
          20 callsubr
          endchar
        </CharString>
        <CharString name="H">
          144 -23 callgsubr
          hstem
          116 90 303 90 vstem
          675 574 rmoveto
          26 -249 -26 83 -250 -303 250 -3 callgsubr
          269 303 -269 -83 67 callgsubr
          hlineto
          4 callgsubr
          548 hlineto
          endchar
        </CharString>
        <CharString name="I">
          7 callsubr
          286 574 -17 callsubr
        </CharString>
        <CharString name="Iacute">
          7 callsubr
          248 -95 callsubr
          38 -139 -17 callsubr
        </CharString>
        <CharString name="Icircumflex">
          7 callsubr
          159 -69 callgsubr
          127 -100 rmoveto
          -14 callsubr
        </CharString>
        <CharString name="Idieresis">
          52 callgsubr
          51 100 hstemhm
          17 100 -4 90 -3 63 callgsubr
          68 -84 callgsubr
          36 -51 rmoveto
          hintmask 11001000
          -14 callsubr
        </CharString>
        <CharString name="Idotaccent">
          52 callgsubr
          46 110 hstemhm
          103 109 -99 90 hintmask 00000000
          hintmask 11110000
          158 646 -74 callgsubr
          128 -72 rmoveto
          26 vlineto
          hintmask 11001000
          -2 callgsubr
          hlineto
          endchar
        </CharString>
        <CharString name="Igrave">
          7 callsubr
          227 -73 callsubr
          59 -39 -17 callsubr
        </CharString>
        <CharString name="Imacron">
          52 callgsubr
          70 50 hstem
          113 90 vstem
          10 720 34 callsubr
          -24 -120 rmoveto
          -14 callsubr
        </CharString>
        <CharString name="Iogonek">
          -250 45 callgsubr
          548 26 hstemhm
          113 90 -89 76 hintmask 00000000
          hintmask 11101000
          287 -3 callsubr
          hintmask 11110000
          43 callsubr
          83 26 -39 callsubr
          215 hlineto
          hintmask 11101000
          -32 callgsubr
          endchar
        </CharString>
        <CharString name="J">
          -187 -7 24 557 26 hstem
          198 90 vstem
          364 600 rmoveto
          -246 -26 80 -402 hlineto
          -101 -6 -54 -47 vhcurveto
          -54 41 88 -74 hhcurveto
          -30 -18 -21 -23 -31 31 -37 72 89 86 47 111 hvcurveto
          423 76 vlineto
          endchar
        </CharString>
        <CharString name="K">
          69 39 callsubr
          vstem
          247 301 rmoveto
          48 callsubr
          -30 callgsubr
          endchar
        </CharString>
        <CharString name="L">
          1 callsubr
          464 200 -53 callsubr
          endchar
        </CharString>
        <CharString name="Lacute">
          1 callsubr
          330 -95 callsubr
          134 -513 -53 callsubr
          endchar
        </CharString>
        <CharString name="Lcaron">
          1 callsubr
          179 -90 callgsubr
          285 -431 -53 callsubr
          endchar
        </CharString>
        <CharString name="Lslash">
          1 callsubr
          464 200 -12 callsubr
          232 hlineto
          202 115 -15 25 -187 -106 rlineto
          282 83 26 -256 -26 83 -332 vlineto
          -104 -59 15 -26 89 50 rlineto
          -181 -83 -26 444 vlineto
          5 200 rlineto
          endchar
        </CharString>
        <CharString name="M">
          244 -59 callsubr
          103 40 466 87 vstem
          772 574 rmoveto
          26 -163 vlineto
          -209 -485 -229 485 rlineto
          -141 -38 callsubr
          431 hlineto
          219 -462 rlineto
          21 hlineto
          226 512 rlineto
          -481 -83 -26 246 vlineto
          4 callgsubr
          548 hlineto
          endchar
        </CharString>
        <CharString name="N">
          49 callgsubr
          445 600 -78 callgsubr
          endchar
        </CharString>
        <CharString name="Nacute">
          49 callgsubr
          425 -95 callsubr
          20 -113 -78 callgsubr
          endchar
        </CharString>
        <CharString name="Ncaron">
          49 callgsubr
          336 -90 callgsubr
          109 -31 -78 callgsubr
          endchar
        </CharString>
        <CharString name="Ntilde">
          99 -55 callgsubr
          49 55 4 55 hstemhm
          98 40 399 40 hintmask 00000000
          hintmask 11011100
          273 708 45 callsubr
          hintmask 11101100
          -29 callsubr
          hintmask 11011100
          -8 callgsubr
          hintmask 11101100
          172 -108 -78 callgsubr
          endchar
        </CharString>
        <CharString name="O">
          -44 callsubr
          650 300 -100 callsubr
        </CharString>
        <CharString name="OE">
          410 -10 28 -18 -20 callgsubr
          -18 28 hstemhm
          64 callgsubr
          276 -23 callsubr
          hintmask 01110111
          912 133 rmoveto
          -10 callgsubr
          -96 callsubr
          hlineto
          hintmask 10101111
          -15 vlineto
          17 -38 -42 8 -42 hhcurveto
          -66 callsubr
          43 43 9 18 39 hvcurveto
          hintmask 01110111
          -17 464 vlineto
          -10 callsubr
          hintmask 10101111
          -571 -162 rmoveto
          -62 callsubr
          12 callsubr
          hvcurveto
          hintmask 01110111
          205 556 rmoveto
          -44 vlineto
          -18 18 -20 14 -22 12 rrcurveto
          -6 -548 rmoveto
          24 13 22 16 20 19 rrcurveto
          -48 vlineto
          endchar
        </CharString>
        <CharString name="Oacute">
          -44 callsubr
          295 613 -88 callgsubr
          371 -330 -100 callsubr
        </CharString>
        <CharString name="Ocircumflex">
          -44 callsubr
          354 -69 callgsubr
          1 -90 rmoveto
          -75 callsubr
          207 -148 103 -147 hvcurveto
          -592 vmoveto
          -62 callsubr
          12 callsubr
          hvcurveto
          endchar
        </CharString>
        <CharString name="Odieresis">
          134 8 callsubr
          41 100 hstem
          55 105 52 58 callsubr
          50 105 vstem
          263 -84 callgsubr
          205 -351 -100 callsubr
        </CharString>
        <CharString name="Ograve">
          -44 callsubr
          422 -73 callsubr
          228 -313 -100 callsubr
        </CharString>
        <CharString name="Ohungarumlaut">
          -44 callsubr
          240 630 -72 callsubr
          278 -349 -100 callsubr
        </CharString>
        <CharString name="Omacron">
          134 8 callsubr
          60 50 hstem
          64 callgsubr
          vstem
          205 720 34 callsubr
          145 -420 -100 callsubr
        </CharString>
        <CharString name="Oslash">
          -44 callsubr
          481 583 rmoveto
          50 127 rlineto
          -60 hlineto
          -43 -109 rlineto
          6 -24 -24 3 -25 -26 callsubr
          -133 63 -93 85 -49 hvcurveto
          -73 -184 rlineto
          60 hlineto
          64 161 rlineto
          -11 31 34 -5 33 hhcurveto
          -24 callsubr
          146 -74 94 -95 43 hvcurveto
          -321 -283 rmoveto
          208 87 74 105 23 21 -3 -7 21 vhcurveto
          -196 -496 rlineto
          -37 44 -24 72 108 vvcurveto
          195 -282 rmoveto
          -32 -30 6 15 -26 hvcurveto
          199 506 rlineto
          48 -39 31 -75 -127 vvcurveto
          12 callsubr
          vhcurveto
          endchar
        </CharString>
        <CharString name="Otilde">
          -44 callsubr
          215 656 -40 callgsubr
          415 -351 -100 callsubr
        </CharString>
        <CharString name="P">
          29 0 26 239 29 280 47 callgsubr
          239.619995117 82 vstem
          312 265 rmoveto
          283 7 335 -268 hhcurveto
          -299 -65 callgsubr
          289 26 -116 239 hlineto
          111 309 rmoveto
          179 -16 -280 -160 hhcurveto
          -114 280 hlineto
          endchar
        </CharString>
        <CharString name="Q">
          134 -90 77 3 28 66 35 463 28 hstemhm
          64 callgsubr
          hintmask 00000000
          hintmask 10111100
          689 51 rmoveto
          -46 -42 -36 -18 -33 hhcurveto
          -34 -27 16 21 -26 hvcurveto
          90 47 69 95 137 vvcurveto
          202 -148 105 -147 -148 -152 -106 -203 vhcurveto
          hintmask 01111100
          -200 148 -111 149 26 25 3 7 25 vhcurveto
          hintmask 10111100
          -45 32 38 -45 64 hhcurveto
          60 50 44 82 40 hvcurveto
          -358 546 rmoveto
          102 89 -66 -211 -130 -34 -81 -53 -41 hvcurveto
          33 -35 -36 33 -48 hhcurveto
          -37 -35 -26 -36 -26 hvcurveto
          -48 41 -33 76 127 vvcurveto
          206 86 75 108 vhcurveto
          hintmask 01111100
          -2 -564 rmoveto
          -31 -31 7 16 -27 hvcurveto
          29 25 25 14 24 hhcurveto
          28 22 -26 -31 22 hvcurveto
          -6 -18 -19 -3 -20 hhcurveto
          endchar
        </CharString>
        <CharString name="R">
          -19 callgsubr
          292 275 -70 callgsubr
        </CharString>
        <CharString name="Racute">
          -19 callgsubr
          393 -95 callsubr
          -101 -438 -70 callgsubr
        </CharString>
        <CharString name="Rcaron">
          -19 callgsubr
          304 -90 callgsubr
          -12 -356 -70 callgsubr
        </CharString>
        <CharString name="S">
          -9 -10 629 hstem
          70 432 -79 callgsubr
          endchar
        </CharString>
        <CharString name="Sacute">
          -9 612 18 hstem
          70 432 vstem
          241 613 -88 callgsubr
          -127 -420 -92 callgsubr
          endchar
        </CharString>
        <CharString name="Scaron">
          -9 -10 28 566 28 hstemhm
          70 30 -26 90 246 92 -54 30 hintmask 11100100
          300 -90 callgsubr
          hintmask 11011000
          -136 -153 rmoveto
          67 60 39 65 vhcurveto
          hintmask 11010100
          78 84 -53 -106 -2 hvcurveto
          29 194 hlineto
          -25 -5 -13 -35 hvcurveto
          28 -47 -61 13 -55 hhcurveto
          -110 -101 -58 -102 hvcurveto
          hintmask 11011000
          -203 336 36 -152 vvcurveto
          -74 -66 -41 -71 vhcurveto
          hintmask 11101000
          -104 -60 69 123 -11 hvcurveto
          -28 -212 hlineto
          28 2 7 36 hvcurveto
          -34 51 65 -17 62 hhcurveto
          116 108 58 109 hvcurveto
          hintmask 11011000
          207 -338 -39 153 vvcurveto
          endchar
        </CharString>
        <CharString name="T">
          11 -59 callsubr
          1 callgsubr
          179 24 callgsubr
          vstem
          542 600 -57 callgsubr
          endchar
        </CharString>
        <CharString name="Tcaron">
          11 -59 callsubr
          1 callgsubr
          179 24 callgsubr
          vstem
          291 -90 callgsubr
          251 -31 -57 callgsubr
          endchar
        </CharString>
        <CharString name="Thorn">
          29 endchar
        </CharString>
        <CharString name="U">
          0 callsubr
          637 600 -95 callgsubr
        </CharString>
        <CharString name="Uacute">
          0 callsubr
          442 -95 callsubr
          195 -113 -95 callgsubr
        </CharString>
        <CharString name="Ucircumflex">
          0 callsubr
          353 -69 callgsubr
          284 -100 -95 callgsubr
        </CharString>
        <CharString name="Udieresis">
          11 callgsubr
          51 100 hstemhm
          105 90 16 58 callsubr
          33 35 hintmask 00000000
          hintmask 11111110
          262 -84 callgsubr
          193 -51 -55 callsubr
          vhcurveto
          hintmask 11010010
          -106 -58 58 155 hvcurveto
          -89 callsubr
          endchar
        </CharString>
        <CharString name="Ugrave">
          0 callsubr
          421 -73 callsubr
          216 -13 -95 callgsubr
        </CharString>
        <CharString name="Uhungarumlaut">
          0 callsubr
          383 727 -38 callgsubr
          266 -49 -95 callgsubr
        </CharString>
        <CharString name="Umacron">
          11 callgsubr
          70 50 25 callsubr
          504 720 16 callgsubr
          133 -70 -95 callgsubr
        </CharString>
        <CharString name="Uogonek">
          91 57 callgsubr
          28 556 26 hstem
          105 90 99 76 157 35 vstem
          637 600 -97 callgsubr
          -225 -736 -13 callgsubr
        </CharString>
        <CharString name="Uring">
          11 callgsubr
          12 65 callsubr
          hstemhm
          105 90 58 54 101 54 65 35 hintmask 00000000
          hintmask 11111111
          355 612 -45 callsubr
          hintmask 11011111
          280 -172 -95 callgsubr
        </CharString>
        <CharString name="V">
          19 574 26 hstemhm
          418 175 53 callgsubr
          418 600 rmoveto
          -26 86 vlineto
          -165 -469 -180 469 rlineto
          80 26 -234 -26 60 hlineto
          190 -505 rlineto
          -62 23 12 -12 29 hhcurveto
          17 hlineto
          206 579 rlineto
          51 26 hlineto
          endchar
        </CharString>
        <CharString name="W">
          289 574 26 hstemhm
          693 167 53 callgsubr
          693 600 rmoveto
          -26 82 vlineto
          -161 -462 -157 462 rlineto
          74 26 -172 hlineto
          68 -191 -107 -299 -163 464 rlineto
          82 26 -229 -26 58 hlineto
          208 -574 rlineto
          37 hlineto
          130 363 128 -363 rlineto
          37 hlineto
          199 574 rlineto
          53 26 hlineto
          endchar
        </CharString>
        <CharString name="X">
          35 -59 callsubr
          12 594 vstem
          582 26 rmoveto
          -35 hlineto
          -206 303 157 217 rlineto
          18 13 25 19 callsubr
          -184 -26 90 hlineto
          -159 -221 -151 221 rlineto
          76 26 -224 -26 44 hlineto
          197 -292 -167 -228 rlineto
          -19 -14 -34 -9 -20 hhcurveto
          -12 -8 -7 -19 hvcurveto
          203 26 -98 hlineto
          167 230 155 -230 rlineto
          -85 -26 252 hlineto
          55 callgsubr
        </CharString>
        <CharString name="Y">
          42 callgsubr
          383 600 -35 callgsubr
        </CharString>
        <CharString name="Yacute">
          42 callgsubr
          394 -95 callsubr
          -11 -113 -35 callgsubr
        </CharString>
        <CharString name="Ydieresis">
          -4 -55 callgsubr
          51 100 hstemhm
          163 100 -17.5 90 10.5 63 callgsubr
          214 -84 callgsubr
          -13 -51 -7 callsubr
          hintmask 11001000
          -48 callgsubr
        </CharString>
        <CharString name="Z">
          28 callsubr
          508 207 -77 callsubr
        </CharString>
        <CharString name="Zacute">
          28 callsubr
          398 -95 callsubr
          110 -506 -77 callsubr
        </CharString>
        <CharString name="Zcaron">
          28 callsubr
          309 -90 callgsubr
          199 -424 -77 callsubr
        </CharString>
        <CharString name="Zdotaccent">
          4 -55 callgsubr
          46 110 hstem
          253 109 146 21 vstem
          308 646 -74 callgsubr
          200 -439 -77 callsubr
        </CharString>
        <CharString name="a">
          -71 callgsubr
        </CharString>
        <CharString name="aacute">
          -40 callsubr
          hintmask 01111110
          331 -87 callgsubr
          hintmask 10111110
          120 -488 -103 callsubr
        </CharString>
        <CharString name="abreve">
          -50 callsubr
          75 64 58 callgsubr
          -1 20 167 80 -43 21 88 26 57 callsubr
          hintmask 1011101011000000
          241 510 -46 callgsubr
          210 -415 52 callsubr
          hintmask 1011110101000000
          -105 callsubr
          hintmask 0111110101000000
          -54 callgsubr
          hintmask 1011110101000000
          -60 callgsubr
          hintmask 0111110101000000
          -88 callsubr
        </CharString>
        <CharString name="acircumflex">
          -40 callsubr
          hintmask 01111110
          242 -58 callsubr
          hintmask 10111110
          209 -475 -103 callsubr
        </CharString>
        <CharString name="acute">
          -71 483 173 hstem
          204 177 vstem
          220 -69 callsubr
          endchar
        </CharString>
        <CharString name="adieresis">
          -50 callsubr
          86 100 58 callgsubr
          -19 58 callsubr
          -78 59 callsubr
          hintmask 1011101101000000
          151 -85 callsubr
          118 -426 52 callsubr
          hintmask 1011110011000000
          -105 callsubr
          hintmask 0111110011000000
          -54 callgsubr
          hintmask 1011110011000000
          -60 callgsubr
          hintmask 0111110011000000
          -88 callsubr
        </CharString>
        <CharString name="ae">
          375 -10 28 -28 31 -31 40 187 27 -25 -56 callsubr
          -5 callgsubr
          45 40 callsubr
          57 callsubr
          hintmask 0101011111100000
          412 21 rmoveto
          -105 callsubr
          hintmask 0010111111100000
          -54 callgsubr
          hintmask 0100111111100000
          -60 callgsubr
          -26 1 rlineto
          hintmask 0101011111100000
          -18 callgsubr
          hintmask 1000111111100000
          336 -3 -107 callgsubr
          hintmask 0011011111100000
          -539 -380 -90 callsubr
        </CharString>
        <CharString name="agrave">
          -40 callsubr
          hintmask 01111110
          310 -79 callsubr
          hintmask 10111110
          141 -388 -103 callsubr
        </CharString>
        <CharString name="amacron">
          -50 callsubr
          105 50 -5 callgsubr
          hintmask 01111111
          393 590 16 callgsubr
          hintmask 10111111
          58 -445 rmoveto
          -98 callgsubr
          hintmask 01111111
          -54 callgsubr
          hintmask 10111111
          -60 callgsubr
          hintmask 01111111
          -88 callsubr
        </CharString>
        <CharString name="aogonek">
          -89 57 callgsubr
          31 -31 40 -30 8 209 27 166 25 58 callgsubr
          165 76 -55 59 callsubr
          hintmask 1001111101000000
          402 -162 rmoveto
          -32 callsubr
          -1 9 -3 -1 -3 0 -3 -1 rlinecurve
          hintmask 1100111011000000
          20 17 9 29 2 41 -26 1 rcurveline
          -98 callgsubr
          hintmask 1010111011000000
          -54 callgsubr
          hintmask 1100111011000000
          8 -63 28 -28 43 -2 rrcurveto
          hintmask 1010111101000000
          -71 -27 -30 -42 -37 42 callsubr
          hintmask 1001111101000000
          4 callsubr
          hintmask 1010111011000000
          -210 192 -90 callsubr
        </CharString>
        <CharString name="apostrophe">
          -511 349 173 hstem
          18 141 vstem
          18 349 rmoveto
          173 141 -173 vlineto
          endchar
        </CharString>
        <CharString name="aring">
          -50 callsubr
          47 65 callsubr
          58 callgsubr
          19 54 101 54 -42 59 callsubr
          hintmask 1011111110100000
          240 482 -45 callsubr
          209 -547 52 callsubr
          hintmask 1011111001100000
          -105 callsubr
          hintmask 0111111001100000
          -54 callgsubr
          hintmask 1011111001100000
          -60 callgsubr
          hintmask 0111111001100000
          -88 callsubr
        </CharString>
        <CharString name="asciitilde">
          29 endchar
        </CharString>
        <CharString name="asterisk">
          -188 327 323 -260.850006104 198.559997559 -198.409988403 198.570007324 hstemhm
          157 71 hintmask 10010000
          321 455 rmoveto
          hintmask 01010000
          -20 11 -45 3 -45 19 45 19 45 4 21 12 16 9 6 17 -11 20 -11 19 -19 5 -17 -10 rrcurveto
          hintmask 00110000
          -20 -12 -25 -37 -39 -30 rrcurveto
          6 48 20 42 24 vvcurveto
          18 -12 14 -23 -22 -14 -13 -20 -23 20 -40 6 -50 vhcurveto
          -38 30 -27 37 -20 12 -16 10 -18 -4 -11 -19 -11 -19 5 -19 17 -10 20 -11 45 -3 45 -19 -45 -19 -45 -4 -21 -12 -16 -9 -6 -17 11 -20 11 -19 19 -5 17 10 rrcurveto
          hintmask 01010000
          20 12 25 37 39 30 rrcurveto
          -6 -48 -20 -42 -24 vvcurveto
          -18 12 -14 23 22 14 13 20 23 -20 40 -6 50 vhcurveto
          38 -30 27 -37 20 -12 16 -10 18 4 11 19 rrcurveto
          hintmask 10010000
          11 19 -5 19 -17 10 rrcurveto
          endchar
        </CharString>
        <CharString name="atilde">
          -50 callsubr
          84 55 4 55 -5 callgsubr
          hintmask 0000000000000000
          hintmask 0111011110000000
          179 578 45 callsubr
          hintmask 0111101110000000
          -29 callsubr
          hintmask 0111011110000000
          -8 callgsubr
          hintmask 1011101110000000
          272 -483 rmoveto
          -98 callgsubr
          hintmask 0111101110000000
          -54 callgsubr
          hintmask 1011101110000000
          -60 callgsubr
          hintmask 0111101110000000
          -88 callsubr
        </CharString>
        <CharString name="b">
          -21 -10 25 -15 26 369 40 189 26 hstemhm
          101 80 239 90 hintmask 10111100
          339 435 rmoveto
          -61 -65 -29 -87 -32 hvcurveto
          331 14 callsubr
          vlineto
          hintmask 01111100
          -546 vlineto
          -45 -27 -7 -49 vhcurveto
          -26 140 vlineto
          hintmask 10111100
          4 62 rlineto
          -48 30 52 -24 55 hhcurveto
          98 106 76 152 106 -52 111 -119 hvcurveto
          -43 -420 rmoveto
          -67 -49 60 117 116 48 87 80 74 38 -73 -111 -133 -55 -63 -69 hvcurveto
          endchar
        </CharString>
        <CharString name="backslash">
          54 callsubr
          391 -155 rmoveto
          -341 865 rlineto
          -60 hlineto
          341 -865 rlineto
          endchar
        </CharString>
        <CharString name="braceleft">
          -171 64 callsubr
          80 300 vstem
          155 252 rmoveto
          40 -17 41 -18 -69 vvcurveto
          -151 vlineto
          -90 24 -15 120 vhcurveto
          -28 vlineto
          -160 -64 5 135 hvcurveto
          149 vlineto
          58 -14 20 -62 13 vhcurveto
          21 vlineto
          62 13 14 20 58 vvcurveto
          149 vlineto
          135 64 5 160 vhcurveto
          -28 vlineto
          -120 -24 -15 -90 hvcurveto
          -151 vlineto
          -69 -41 -18 -40 -17 vhcurveto
          endchar
        </CharString>
        <CharString name="braceright">
          -181 -138 781 hstem
          20 300 vstem
          245 255 rmoveto
          -40 17 -41 18 69 vvcurveto
          151 vlineto
          90 -24 15 -120 vhcurveto
          28 vlineto
          160 64 -5 -135 hvcurveto
          -149 vlineto
          -58 14 -20 62 -13 vhcurveto
          -21 vlineto
          -62 -13 -14 -20 -58 vvcurveto
          -149 vlineto
          -135 -64 -5 -160 vhcurveto
          28 vlineto
          120 24 15 90 hvcurveto
          151 vlineto
          69 41 18 40 17 vhcurveto
          endchar
        </CharString>
        <CharString name="bracketleft">
          -221 64 callsubr
          90 240 vstem
          330 -108 rmoveto
          -28 -240 781 240 -28 -155 -723 vlineto
          endchar
        </CharString>
        <CharString name="bracketright">
          -208 64 callsubr
          33 240 vstem
          33 -108 rmoveto
          155 2 rlineto
          723 -155 28 240 -781 -240 vlineto
          endchar
        </CharString>
        <CharString name="breve">
          -71 510 129 hstem
          128 245 vstem
          148 639 rmoveto
          -53 11 46 -12 49 hhcurveto
          43 44 9 56 11 hvcurveto
          21 hlineto
          -66 -33 -63 -89 -88 -35 63 66 vhcurveto
          endchar
        </CharString>
        <CharString name="bullet">
          -203 145 169 hstem
          100 168 vstem
          184 145 rmoveto
          46 38 37 47 48 -38 37 -46 -46 -38 -37 -48 -47 38 -37 46 hvcurveto
          endchar
        </CharString>
        <CharString name="c">
          -8 callsubr
          252 435 -35 callsubr
        </CharString>
        <CharString name="cacute">
          -8 callsubr
          187 -69 callsubr
          81 -65 -35 callsubr
        </CharString>
        <CharString name="caron">
          -71 501 151 hstem
          108 284 vstem
          379 651 rmoveto
          -37 -24 -56 -32 -36 -18 -86 callgsubr
          42 21 47 88 78 hvcurveto
          endchar
        </CharString>
        <CharString name="ccaron">
          -8 callsubr
          246 -75 callgsubr
          159 -395 rmoveto
          -37 callgsubr
          35 callgsubr
          -139 98 -79 116 56 callsubr
          vhcurveto
          endchar
        </CharString>
        <CharString name="ccedilla">
          -122 20 callgsubr
          42 27 393 25 hstemhm
          40 90 154 75 -34.6399993896 94.6399993896 hintmask 11111100
          254 -10 rmoveto
          56 callsubr
          hvcurveto
          -26 6 rlineto
          -16 callsubr
          hvcurveto
          hintmask 11111010
          -24 callgsubr
          35 callgsubr
          -118 71 -75 93 -20 vhcurveto
          -40 -80 14 -9 rlineto
          hintmask 11111100
          -93 callgsubr
          24 53 rlineto
          -1 8 9 0 9 hhcurveto
          endchar
        </CharString>
        <CharString name="cedilla">
          -71 20 callgsubr
          hstem
          285 75 vstem
          209 3 -29 callgsubr
        </CharString>
        <CharString name="circumflex">
          -71 499 144 hstem
          117 266 vstem
          383 515 rmoveto
          -82 callgsubr
          -11 callsubr
          rrcurveto
          endchar
        </CharString>
        <CharString name="colon">
          -363 52 98 136 98 hstem
          55 98 vstem
          104 286 rmoveto
          5 callsubr
          -234 vmoveto
          5 callsubr
          endchar
        </CharString>
        <CharString name="comma">
          -378 -97 62 callsubr
          -97 -83 callgsubr
          endchar
        </CharString>
        <CharString name="czechcaron">
          -71 442 220 hstem
          263 44 vstem
          238 442 -76 callsubr
          endchar
        </CharString>
        <CharString name="d">
          -23 36 callsubr
          hintmask 01111100
          523 hmoveto
          -30 callsubr
          -50 hlineto
          -2 624 rlineto
          -176 -26 96 -241 14 callgsubr
          hintmask 10111100
          29 callgsubr
          hintmask 01111100
          8 -103 rlineto
          hintmask 10111100
          -134 30 -16 callgsubr
        </CharString>
        <CharString name="dcaron">
          -19 36 callsubr
          100 44 hintmask 01111110
          531 662 -100 callgsubr
          -32 -636 rmoveto
          -50 hlineto
          -2 624 rlineto
          -176 -26 96 -241 -9 callsubr
          hintmask 10111110
          -257 4 -16 callgsubr
        </CharString>
        <CharString name="dcroat">
          -23 -10 40 -30 26 384 25 74 33 82 26 hstemhm
          40 90 237 81 hintmask 01111110
          523 542 rmoveto
          -76 108 -176 -26 96 -82 -184 -33 184 -126 -9 callsubr
          -50 hlineto
          -2 483 rlineto
          76 hlineto
          hintmask 10111110
          -281 -479 -16 callgsubr
        </CharString>
        <CharString name="dieresis">
          -71 521 100 hstem
          109 58 callsubr
          vstem
          160 -85 callsubr
          endchar
        </CharString>
        <CharString name="dotaccent">
          516 110 hstem
          87 109 vstem
          142 -56 callgsubr
          endchar
        </CharString>
        <CharString name="dotlessi">
          22 callsubr
          262 hmoveto
          -63 callgsubr
        </CharString>
        <CharString name="e">
          -51 callgsubr
          266 18 -106 callsubr
        </CharString>
        <CharString name="eacute">
          -51 callgsubr
          322 -87 callgsubr
          -56 -565 -106 callsubr
        </CharString>
        <CharString name="ecaron">
          -51 callgsubr
          233 -75 callgsubr
          33 -483 -106 callsubr
        </CharString>
        <CharString name="ecircumflex">
          -51 callgsubr
          233 -58 callsubr
          33 -552 -106 callsubr
        </CharString>
        <CharString name="edieresis">
          -60 callsubr
          86 100 hstemhm
          40 90 -39 58 callsubr
          -29 84 hintmask 00000000
          hintmask 11110110
          142 -85 callsubr
          -58 -503 rmoveto
          hintmask 11101001
          -104 callgsubr
          hintmask 11110110
          -56 -26 -49 -31 -57 hhcurveto
          hintmask 11101001
          -87 callsubr
          endchar
        </CharString>
        <CharString name="edotaccent">
          -60 callsubr
          81 110 hstem
          40 90 47 109 59 84 vstem
          232 -56 callgsubr
          34 -498 -106 callsubr
        </CharString>
        <CharString name="egrave">
          -51 callgsubr
          301 -79 callsubr
          -35 -465 -106 callsubr
        </CharString>
        <CharString name="eight">
          -23 8 callsubr
          hstemhm
          60 34 -16 93 222 95 -73 34 hintmask 11100100
          358 328 rmoveto
          62 35 29 52 50 vvcurveto
          98 -85 47 -90 vhcurveto
          hintmask 11010100
          -102 -94 -56 -105 -72 49 -45 60 -35 hvcurveto
          hintmask 11101000
          -89 -31 -38 -62 -57 vvcurveto
          -102 87 -55 113 113 115 63 104 vhcurveto
          hintmask 11100100
          85 -61 48 -69 38 vhcurveto
          hintmask 11010100
          -77 254 rmoveto
          68 66 -41 -77 -46 -29 -47 -55 -29 hvcurveto
          -79 42 -81 35 71 vvcurveto
          56 45 36 65 vhcurveto
          hintmask 11101000
          -28 -564 rmoveto
          -80 -79 45 86 50 38 57 83 25 hvcurveto
          85 -45 93 -34 -72 vvcurveto
          -77 -66 -35 -74 vhcurveto
          endchar
        </CharString>
        <CharString name="ellipsis">
          25 -5 103 hstem
          50 102 95 102 95 102 vstem
          101 -5 rmoveto
          -46 callsubr
          197 hmoveto
          -46 callsubr
          197 hmoveto
          -46 callsubr
          endchar
        </CharString>
        <CharString name="emacron">
          -60 callsubr
          105 50 hstem
          40 40 callsubr
          vstem
          384 590 16 callgsubr
          -118 -522 -106 callsubr
        </CharString>
        <CharString name="emdash">
          309 200 40 hstem
          100 680 vstem
          100 240 rmoveto
          -40 680 40 vlineto
          endchar
        </CharString>
        <CharString name="endash">
          109 200 40 hstem
          100 480 vstem
          100 240 rmoveto
          -40 480 40 vlineto
          endchar
        </CharString>
        <CharString name="eogonek">
          -107 57 callgsubr
          -64 callsubr
          hstem
          40 90 76 76 63 84 vstem
          266 18 -107 callgsubr
          75 -572 -13 callgsubr
        </CharString>
        <CharString name="eth">
          29 endchar
        </CharString>
        <CharString name="exclam">
          -292 -5 103 hstemhm
          87 102 -65 30 hintmask 10100000
          194 546 rmoveto
          36 -9 28 -45 -43 -12 -27 -39 vhcurveto
          -83 39 -79 -215 vvcurveto
          30 hlineto
          210 40 86 83 vvcurveto
          hintmask 11000000
          -56 -551 rmoveto
          -46 callsubr
          endchar
        </CharString>
        <CharString name="exclamdown">
          -317 332 103 hstemhm
          55 102 -67 30 53 callgsubr
          106 27 callsubr
          hintmask 10100000
          -56 -551 rmoveto
          -36 9 -28 45 43 12 27 39 vhcurveto
          83 -39 79 215 vvcurveto
          -30 hlineto
          -210 -40 -86 -83 vvcurveto
          endchar
        </CharString>
        <CharString name="f">
          -262 -4 callgsubr
          200 25 53 callsubr
          277 650 rmoveto
          -28 callsubr
          37 -49 32 -68 hvcurveto
          endchar
        </CharString>
        <CharString name="fi">
          25 -4 callgsubr
          91 110 -1 25 hstemhm
          106 80 210 109 -90 80 hintmask 11011010
          256 625 rmoveto
          37 callsubr
          37 -49 32 -68 -51 callsubr
          hintmask 11101100
          195 -109 -74 callgsubr
          hintmask 11011010
          96 -490 15 callgsubr
        </CharString>
        <CharString name="five">
          -71 -10 26 318 37 141 84 hstemhm
          38 107.160003662 -57.1600036621 35 242 97 -61 25 hintmask 11101100
          255 371 rmoveto
          -46 -47 -13 -26 -39 hvcurveto
          188 vlineto
          -6 51 45 -2 38 hhcurveto
          hintmask 11101010
          151 18 26 111 hvcurveto
          -25 hlineto
          -42 -13 -18 -11 -70 hhcurveto
          -45 -66 5 4 -101 hvcurveto
          -284 vlineto
          35 -26 rlineto
          28 34 39 11 35 hhcurveto
          hintmask 11110100
          96 38 -73 -78 -92 -48 -75 -98 hvcurveto
          -129 37 callgsubr
          -50 59 -71 126 158 81 102 98 hvcurveto
          hintmask 11101100
          92 -70 89 -137 vhcurveto
          endchar
        </CharString>
        <CharString name="fl">
          25 43 callgsubr
          50 callsubr
          229 80 vstem
          339 26 rmoveto
          -26 232 vlineto
          3 callgsubr
          -10 hlineto
          6 -18 -21 4 -23 hhcurveto
          -28 callsubr
          16 -9 15 -16 12 hvcurveto
          46 17 callsubr
          endchar
        </CharString>
        <CharString name="four">
          -70 0 27 125.5 30 hstem
          291 83 vstem
          461 151 rmoveto
          30 -87 205 -23 vlineto
          -10 -42 -8 -32 -10 -8 -26 -1 rlinecurve
          -6 -121 hlineto
          -242 1 rlineto
          191 157 136 135 88 vvcurveto
          31 -23 16 -36 -114 93 -188 -239 -291 vhcurveto
          6 -30 280 -1 rlineto
          -125 -107 -27 277 vlineto
          23 -5 4 -19 vhcurveto
          -63 124 hlineto
          endchar
        </CharString>
        <CharString name="fraction">
          29 endchar
        </CharString>
        <CharString name="g">
          26 callsubr
          223 85 -9 48 57 callsubr
          hintmask 1110110001000000
          403 434 -6 callgsubr
          hintmask 1111010001000000
          9 callsubr
          hintmask 1111001001000000
          32 callsubr
          hintmask 1111000101000000
          -13 callsubr
          hintmask 1110101010000000
          -34 callsubr
          hintmask 1110110001000000
          60 callgsubr
          hintmask 1111010010000000
          -25 callsubr
          hintmask 1111000101000000
          -20 callsubr
          hintmask 1111010010000000
          50 callgsubr
        </CharString>
        <CharString name="gbreve">
          16 callsubr
          21 64 hstemhm
          60 85 -80 38 -28 36 19 20 184 85 -65 21 35 48 57 callsubr
          hintmask 1111010001011000
          253 510 -46 callgsubr
          hintmask 1110111000011000
          150 -76 -6 callgsubr
          hintmask 1111011000011000
          9 callsubr
          hintmask 1111010100011000
          32 callsubr
          hintmask 1111010010011000
          -13 callsubr
          hintmask 1110110100100000
          -34 callsubr
          hintmask 1110111000011000
          60 callgsubr
          hintmask 1111011000100000
          -25 callsubr
          hintmask 1111010010011000
          -20 callsubr
          hintmask 1111011000100000
          50 callgsubr
        </CharString>
        <CharString name="germandbls">
          29 endchar
        </CharString>
        <CharString name="grave">
          -71 483 173 hstem
          161 177 vstem
          322 -79 callsubr
          endchar
        </CharString>
        <CharString name="guillemotleft">
          -157 56 callgsubr
          364 vstem
          108 205 rmoveto
          -18 callsubr
          170 hmoveto
          -18 callsubr
          endchar
        </CharString>
        <CharString name="guillemotright">
          -157 56 callgsubr
          364 vstem
          136 205 rmoveto
          -17 callgsubr
          170 hmoveto
          -17 callgsubr
          endchar
        </CharString>
        <CharString name="guilsinglleft">
          -309 56 callgsubr
          212 vstem
          108 205 rmoveto
          34 45 55 78 37 50 -20 17 rcurveline
          -49 -55 -100 -1 callgsubr
          105 -74 53 -56 18 16 rcurveline
          -36 48 -58 80 -35 45 rrcurveto
          endchar
        </CharString>
        <CharString name="guilsinglright">
          -309 56 callgsubr
          212 vstem
          154 205 rmoveto
          -35 -45 -58 -80 -36 -48 18 -16 rcurveline
          53 56 105 -2 callsubr
          -100 76 -49 55 -20 -17 rcurveline
          37 -50 55 -78 34 -45 rrcurveto
          endchar
        </CharString>
        <CharString name="h">
          0 0 26 364 45 189 26 hstem
          107 80 203 80 vstem
          326 41 callgsubr
          110 -62 52 -70 -61 -64 -35 -71 -26 vhcurveto
          321 -7 callgsubr
          -546 vlineto
          -42 -35 -26 callgsubr
          227 -54 callsubr
          47 callsubr
          101 61 48 51 48 43 -39 -78 vhcurveto
          -195 vlineto
          31 callsubr
        </CharString>
        <CharString name="hungarumlaut">
          29 500 167 hstem
          187 336.869995117 vstem
          202 500 -72 callsubr
          endchar
        </CharString>
        <CharString name="hyphen">
          27 callgsubr
        </CharString>
        <CharString name="i">
          -4 callgsubr
          91 110 hstemhm
          87 109 -90 80 hintmask 00000000
          hintmask 11110000
          142 -56 callgsubr
          hintmask 11001000
          120 -516 rmoveto
          -63 callgsubr
        </CharString>
        <CharString name="iacute">
          22 callsubr
          86 -69 callsubr
          192 -500 rmoveto
          -63 callgsubr
        </CharString>
        <CharString name="icircumflex">
          22 callsubr
          143 643 rmoveto
          -72 callgsubr
          -11 callsubr
          12 16 rcurveline
          83 -75 -19 45 -40 hhcurveto
          95 -617 15 callgsubr
        </CharString>
        <CharString name="idieresis">
          -4 callgsubr
          96 100 hstemhm
          13 100 -7 80 -10 63 callgsubr
          64 521 -86 callsubr
          162 -85 callgsubr
          hintmask 11001000
          36 -521 rmoveto
          -63 callgsubr
        </CharString>
        <CharString name="igrave">
          22 callsubr
          213 -79 callsubr
          49 -483 rmoveto
          -63 callgsubr
        </CharString>
        <CharString name="imacron">
          -4 callgsubr
          115 50 53 callsubr
          26 590 rmoveto
          -50 240 50 vlineto
          -4 -590 rmoveto
          -63 callgsubr
        </CharString>
        <CharString name="iogonek">
          45 callgsubr
          373 26 91 110 hstemhm
          89 109 -108 76 -60 80 hintmask 00000000
          hintmask 11111000
          144 -56 callgsubr
          hintmask 11110100
          119 -655 -21 callsubr
          hintmask 11110010
          -67 callsubr
          191 vlineto
          hintmask 11110100
          -32 callgsubr
          endchar
        </CharString>
        <CharString name="j">
          -300 -190 22 567 26 91 110 hstemhm
          -27 80.4499969482 40.5500030518 109 -90 80 hintmask 00000000
          hintmask 11101000
          149 -56 callgsubr
          hintmask 11010100
          44 -91 rmoveto
          14 callsubr
          -402 hlineto
          -64 vlineto
          -54 -1 -5 -47 -30 -36 26 75 -54 hhcurveto
          -25 -15 -15 -21 -35 40 -26 46 62 72 47 130 hvcurveto
          endchar
        </CharString>
        <CharString name="k">
          -61 43 callgsubr
          50 callsubr
          124 168 vstem
          231 220 rmoveto
          49 callsubr
          -31 callsubr
          endchar
        </CharString>
        <CharString name="l">
          30 callgsubr
          vstem
          262 hmoveto
          -36 callgsubr
          endchar
        </CharString>
        <CharString name="lacute">
          30 callgsubr
          vstem
          47 677 rmoveto
          67 29 71 11 30 18 10 5 8 9 3 9 6 23 -17 27 -23 6 -9 2 -11 -1 -10 -6 -30 -17 -45 -57 -62 -38 rrcurveto
          227 -697 rmoveto
          -36 callgsubr
          endchar
        </CharString>
        <CharString name="lcaron">
          -262 30 callgsubr
          99 44 vstem
          260 442 -76 callsubr
          26 -458 rmoveto
          -36 callgsubr
          endchar
        </CharString>
        <CharString name="lslash">
          30 callgsubr
          vstem
          238 26 rmoveto
          -52 306 hlineto
          106 60 -15 25 -91 -51 rlineto
          284 14 callsubr
          -303 vlineto
          -102 -58 15 -26 87 49 rlineto
          -208 vlineto
          -31 callgsubr
          232 vlineto
          55 callgsubr
        </CharString>
        <CharString name="m">
          247 0 26 367 42 -36 60 callsubr
          185 80 185 80 hintmask 10111100
          573 41 callgsubr
          hintmask 11011100
          105 -61 57 -71 -55 -55 -34 -75 -29 vhcurveto
          71 -17 -50 38 -52 hhcurveto
          -55 -57 -34 -76 -29 hvcurveto
          hintmask 10111100
          -62 callgsubr
          hintmask 11011100
          96 3 57 55 50 hhcurveto
          40 35 -34 -75 24 callsubr
          9 vlineto
          71 15 50 40 43 hhcurveto
          41 36 -35 -75 48 callgsubr
          hintmask 10111100
          31 callsubr
        </CharString>
        <CharString name="macron">
          28 callgsubr
        </CharString>
        <CharString name="n">
          9 callgsubr
          326 26 -78 callsubr
        </CharString>
        <CharString name="nacute">
          9 callgsubr
          376 -87 callgsubr
          -50 -557 -78 callsubr
        </CharString>
        <CharString name="ncaron">
          9 callgsubr
          287 -75 callgsubr
          39 -475 -78 callsubr
        </CharString>
        <CharString name="nine">
          -34 -11 26 239 33 297 26 hstemhm
          40 95 -80 112.36000061 206.63999939 100 hintmask 11110100
          249 610 rmoveto
          -121 -88 -72 -111 -108 91 -65 106 49 48 16 33 40 hvcurveto
          -152 -2 -23 -136 -112 hhcurveto
          hintmask 11101100
          -115 86 148 -99 hhcurveto
          -33 -22 -23 -32 1 hvcurveto
          1 -62 66 -59 101 2 rrcurveto
          183 3 68 158 169 vvcurveto
          hintmask 11110100
          179 -74 112 -151 vhcurveto
          2 -323 rmoveto
          -90 -26 71 84 80 27 62 90 84 38 -68 -85 -97 -51 -47 -72 hvcurveto
          endchar
        </CharString>
        <CharString name="ntilde">
          18 callgsubr
          94 55 4 55 hstemhm
          107 80 203 80 hintmask 00000000
          hintmask 10101110
          224 578 45 callsubr
          hintmask 10110110
          -29 callsubr
          hintmask 10101110
          -8 callgsubr
          hintmask 11010110
          102 -552 rmoveto
          -47 callgsubr
          2 callsubr
          hintmask 10110110
          -62 callgsubr
          hintmask 11010110
          -6 callsubr
          31 callsubr
        </CharString>
        <CharString name="numbersign">
          8 195 45 130 45 hstem
          60 459 vstem
          519 370 rmoveto
          45 -111 vlineto
          59 callgsubr
          -144 hlineto
          59 callgsubr
          -131 -45 125 hlineto
          -17 -130 rlineto
          -121 -45 115 54 callgsubr
          144 54 callgsubr
          127 45 -121 hlineto
          17 130 rlineto
          -47 -130 rmoveto
          -144 hlineto
          17 130 rlineto
          144 hlineto
          endchar
        </CharString>
        <CharString name="o">
          -43 callsubr
        </CharString>
        <CharString name="oacute">
          -48 callsubr
          204 -69 callsubr
          285 -287 -102 callsubr
        </CharString>
        <CharString name="ocircumflex">
          -48 callsubr
          263 -58 callsubr
          -4 -135 rmoveto
          -82 callsubr
          13 callgsubr
          hvcurveto
          -420 vmoveto
          -81 callgsubr
          endchar
        </CharString>
        <CharString name="odieresis">
          -5 callsubr
          86 100 hstemhm
          40 95 -14 58 callsubr
          -26 95 hintmask 00000000
          hintmask 11101100
          172 -85 callsubr
          hintmask 11010010
          119 -308 -102 callsubr
        </CharString>
        <CharString name="oe">
          406 -10 25 -25 -64 callsubr
          hstemhm
          12 callgsubr
          80 40 callsubr
          hintmask 10111111
          259 435 rmoveto
          -82 callsubr
          13 callgsubr
          hvcurveto
          hintmask 01111111
          520 -417 -105 callgsubr
          hintmask 10111111
          -520 -3 rmoveto
          -81 callgsubr
          503 395 -84 callsubr
          endchar
        </CharString>
        <CharString name="ogonek">
          -71 -191 29 hstem
          141 76 vstem
          314 -139 rmoveto
          -16 -19 -20 -7 -16 hhcurveto
          -33 callgsubr
          endchar
        </CharString>
        <CharString name="ograve">
          -48 callsubr
          331 -79 callsubr
          142 -270 -102 callsubr
        </CharString>
        <CharString name="ohungarumlaut">
          -48 callsubr
          149 500 -72 callsubr
          192 -306 -102 callsubr
        </CharString>
        <CharString name="omacron">
          -5 callsubr
          105 50 hstem
          12 callgsubr
          vstem
          114 590 34 callsubr
          59 -377 -102 callsubr
        </CharString>
        <CharString name="one">
          -27 callgsubr
        </CharString>
        <CharString name="onehalf">
          29 endchar
        </CharString>
        <CharString name="onequarter">
          29 endchar
        </CharString>
        <CharString name="ordfeminine">
          -71 callgsubr
        </CharString>
        <CharString name="ordmasculine">
          -43 callsubr
        </CharString>
        <CharString name="oslash">
          -48 callsubr
          490 441 rmoveto
          -21 19 -73 -71 rlineto
          31 -39 -49 15 -49 hhcurveto
          -108 -111 -76 -142 -55 15 -46 24 -36 hvcurveto
          -71 -69 21 -20 68 67 rlineto
          -45 42 58 -23 59 hhcurveto
          108 109 79 144 67 -22 53 -35 36 hvcurveto
          -281 -156 rmoveto
          117 28 80 93 51 31 -22 -38 18 vhcurveto
          -216 -211 rlineto
          -4 23 -1 25 26 vvcurveto
          243 4 rmoveto
          -118 -26 -84 -93 -63 -33 35 56 -16 vhcurveto
          220 215 rlineto
          8 -30 3 -35 -39 vvcurveto
          endchar
        </CharString>
        <CharString name="otilde">
          -48 callsubr
          124 526 -40 callgsubr
          329 -308 -102 callsubr
        </CharString>
        <CharString name="p">
          -21 -190 26 154 25 380 40 -36 26 hstemhm
          101 80 239 90 hintmask 11011100
          253 -164 rmoveto
          -72 203 hlineto
          -33 32 45 -16 45 hhcurveto
          100 107 78 154 hvcurveto
          hintmask 11101100
          107 -52 106 -118 -67 -64 -33 -86 -29 vhcurveto
          hintmask 11011100
          -5 109 rlineto
          -150 -26 76 -511 hlineto
          -45 -27 -7 -49 vhcurveto
          -26 252 -54 callsubr
          -73 357 rmoveto
          hintmask 11101100
          125 49 77 79 74 38 -69 -114 -128 -48 -69 -76 vhcurveto
          hintmask 11011100
          -65 -51 51 127 hvcurveto
          endchar
        </CharString>
        <CharString name="parenleft">
          -235 -150 800 hstem
          50 85 vstem
          321 625 rmoveto
          -9 25 rlineto
          -174 -47 -88 -179 -178 vvcurveto
          -175 85 -174 174 -47 vhcurveto
          10 25 rlineto
          -123 45 -61 164 164 vvcurveto
          165 63 166 123 46 vhcurveto
          endchar
        </CharString>
        <CharString name="parenright">
          -233 -150 800 hstem
          203 85 vstem
          17 625 rmoveto
          123 -46 63 -166 -165 vvcurveto
          -164 -61 -164 -123 -45 vhcurveto
          10 -25 rlineto
          174 47 85 174 175 vvcurveto
          178 -88 179 -174 47 vhcurveto
          endchar
        </CharString>
        <CharString name="period">
          -369 -5 103 hstem
          50 102 vstem
          101 -5 rmoveto
          -46 callsubr
          endchar
        </CharString>
        <CharString name="periodcentered">
          -263 178 108 hstem
          100 108 vstem
          154 178 rmoveto
          30 24 24 30 30 -24 24 -30 -30 -24 -24 -30 -30 24 -24 30 hvcurveto
          endchar
        </CharString>
        <CharString name="q">
          -21 -190 26 154 40 369 26 -15 25 hstemhm
          40 90 239 80 hintmask 11101100
          525 399 rmoveto
          26 -146 vlineto
          hintmask 11011100
          -5 -42 rlineto
          34 -35 -48 18 -49 hhcurveto
          -99 -103 -74 -166 -135 82 -70 92 65 60 35 72 31 hvcurveto
          -1 -210 rlineto
          -49 -32 -2 -65 vhcurveto
          -26 253 vlineto
          -30 callsubr
          -52 hlineto
          hintmask 11101100
          563 vlineto
          -205 -369 rmoveto
          -71 -43 66 117 hvcurveto
          hintmask 11011100
          118 44 79 81 71 44 -60 -118 vhcurveto
          hintmask 11101100
          -127 -51 -75 -75 vhcurveto
          endchar
        </CharString>
        <CharString name="question">
          -114 -5 103 486 26 hstemhm
          58 100.399993896 -1.39999389648 102 -66 30 83 102 hintmask 01101100
          193 167 rmoveto
          30 hlineto
          172 185 16 125 vvcurveto
          93 -84 37 -92 -90 -84 -40 -64 -30 16 -23 35 vhcurveto
          91 -86 131 109 hhcurveto
          69 14 -36 -48 hvcurveto
          -133 -113 -29 -171 vvcurveto
          hintmask 11010100
          15 -172 rmoveto
          -46 callsubr
          endchar
        </CharString>
        <CharString name="questiondown">
          -86 -180 26 486 103 hstemhm
          40 102 47 102 -66 30 34.5599975586 100.440002441 hintmask 00000000
          hintmask 11110000
          240 27 callsubr
          hintmask 10101100
          15 -172 rmoveto
          -30 hlineto
          -172 -185 -16 -125 vvcurveto
          -93 84 -37 92 90 84 40 64 30 -16 23 -35 vhcurveto
          -91 86 -131 -109 hhcurveto
          -69 -14 36 48 hvcurveto
          133 113 29 171 vvcurveto
          endchar
        </CharString>
        <CharString name="quotedbl">
          -265 450 205 hstem
          50 83 40 83 vstem
          133 614 rmoveto
          23 -15 18 -26 -25 -17 36 callgsubr
          123 hmoveto
          23 -15 18 -26 -27 -15 36 callgsubr
          endchar
        </CharString>
        <CharString name="quotedblbase">
          -269 -97 62 callgsubr
          -97 -41 callgsubr
        </CharString>
        <CharString name="quotedblleft">
          -274 455 200 hstem
          35 40 89 40 vstem
          98 655 5 callgsubr
          108 15 5 callgsubr
          endchar
        </CharString>
        <CharString name="quotedblright">
          -266 415 62 callgsubr
          415 -41 callgsubr
        </CharString>
        <CharString name="quoteleft">
          -378 455 200 hstem
          40 40 vstem
          95 455 rmoveto
          38 callsubr
          hvcurveto
          25 callgsubr
          -21 15 rlineto
          33 callsubr
          vhcurveto
          endchar
        </CharString>
        <CharString name="quoteright">
          -378 450 62 callsubr
          450 -83 callgsubr
          endchar
        </CharString>
        <CharString name="quotesinglbase">
          -407 -81 183 hstem
          95 39 vstem
          84 -81 rmoveto
          33 38 17 46 36 vvcurveto
          37 -19 26 -35 -27 -20 -21 -26 -25 20 -15 20 -5 vhcurveto
          11 -3 11 -5 -9 vvcurveto
          -14 -14 -25 -18 -21 vhcurveto
          endchar
        </CharString>
        <CharString name="r">
          7 callgsubr
          hintmask 00000000
          hintmask 11010000
          325 431 -80 callgsubr
          endchar
        </CharString>
        <CharString name="racute">
          7 callgsubr
          hintmask 10110000
          289 -87 callgsubr
          hintmask 11010000
          36 -152 -80 callgsubr
          endchar
        </CharString>
        <CharString name="rcaron">
          7 callgsubr
          hintmask 10110000
          200 -75 callgsubr
          hintmask 11010000
          125 -70 -80 callgsubr
          endchar
        </CharString>
        <CharString name="ring">
          -71 482 65 callsubr
          hstem
          144 54 101 54 vstem
          353 576 rmoveto
          6 callsubr
          67 40 41 53 vhcurveto
          -105 -71 rmoveto
          -38 -12 36 32 61 callgsubr
          18 callsubr
          hvcurveto
          endchar
        </CharString>
        <CharString name="s">
          -167 -10 451 44 callgsubr
          -53 callgsubr
          endchar
        </CharString>
        <CharString name="sacute">
          -167 -10 666 hstem
          124 194 vstem
          144 -69 callsubr
          -49 -367 -36 callsubr
          44 44 -10 -18 30 vhcurveto
          -58 callgsubr
          -49 -42 13 23 -34 vhcurveto
          23 callgsubr
          endchar
        </CharString>
        <CharString name="scaron">
          -167 -10 27 -22 152 263 25 hstemhm
          52 27 -27 72 165 73 -44 27 hintmask 10110010
          203 -75 callgsubr
          hintmask 10101100
          -79 -161 rmoveto
          47 44 23 49 vhcurveto
          hintmask 10101010
          59 42 -33 -41 hvcurveto
          2 -20 rlineto
          25 125 hlineto
          -20 -7 -9 -25 hvcurveto
          18 -30 -44 10 -44 hhcurveto
          -77 -71 -30 -80 hvcurveto
          hintmask 10101100
          -146 237 22 -109 vvcurveto
          -49 -47 -26 -50 vhcurveto
          hintmask 10110010
          -58 -55 36 80 hvcurveto
          hintmask 01110010
          14 -27 -152 vlineto
          22 5 5 26 hvcurveto
          hintmask 10110100
          -23 34 42 -13 49 hhcurveto
          81 77 35 84 hvcurveto
          hintmask 10101100
          149 -238 -28 110 vvcurveto
          endchar
        </CharString>
        <CharString name="semicolon">
          -378 233 98 hstemhm
          50 98 -35 40 53 callgsubr
          99 233 rmoveto
          5 callsubr
          hintmask 10100000
          -9 -313 -83 callgsubr
          endchar
        </CharString>
        <CharString name="seven">
          -90 524 76 hstem
          41 22 46 132.710006714 vstem
          42 600 rmoveto
          -2 -179 38 callgsubr
          6 41 hhcurveto
          244 hlineto
          -196 -288 -98 -131 -66 vvcurveto
          -35 24 -19 39 108 -112 139 456 308 vhcurveto
          20 vlineto
          endchar
        </CharString>
        <CharString name="six">
          -44 -10 26 317 32 219 26 hstemhm
          53 95 214.990005493 104.009994507 -77 95 hintmask 11110100
          285 365 rmoveto
          -44 -47 -13 -28 -39 hvcurveto
          145 13 25 115 97 hhcurveto
          hintmask 11111000
          136 -119 -137 -2 107 hvcurveto
          34 19 24 31 53 -62 57 -115 -182 -55 -189 -137 -171 45 -123 175 hvcurveto
          hintmask 11110100
          113 99 70 121 117 -97 67 -103 hvcurveto
          -14 -349 rmoveto
          -83 -40 64 91 111 52 51 70 87 33 -61 -87 -97 -31 -72 -88 hvcurveto
          endchar
        </CharString>
        <CharString name="slash">
          54 callsubr
          -10 -155 rmoveto
          60 hlineto
          341 865 rlineto
          -60 hlineto
          endchar
        </CharString>
        <CharString name="space">
          -371 endchar
        </CharString>
        <CharString name="t">
          51 callsubr
          hstem
          96 80 vstem
          326 399 -52 callgsubr
          endchar
        </CharString>
        <CharString name="tcaron">
          51 callsubr
          hstem
          96 80 95 44 vstem
          246 565 rmoveto
          -94 callsubr
          -68 callsubr
          vhcurveto
          80 -166 -52 callgsubr
          endchar
        </CharString>
        <CharString name="thorn">
          29 endchar
        </CharString>
        <CharString name="three">
          -71 callsubr
        </CharString>
        <CharString name="threequarters">
          29 endchar
        </CharString>
        <CharString name="tilde">
          -71 519 114 hstem
          112 289 vstem
          112 526 -40 callgsubr
          endchar
        </CharString>
        <CharString name="two">
          -61 callsubr
        </CharString>
        <CharString name="u">
          -33 callsubr
          542 hmoveto
          -89 callgsubr
        </CharString>
        <CharString name="uacute">
          -33 callsubr
          374 -87 callgsubr
          168 -583 rmoveto
          -89 callgsubr
        </CharString>
        <CharString name="ucircumflex">
          -33 callsubr
          285 -58 callsubr
          257 -570 rmoveto
          -89 callgsubr
        </CharString>
        <CharString name="udieresis">
          -15 callsubr
          96 100 hstemhm
          97 80 -34 58 callsubr
          -41 80 hintmask 00000000
          hintmask 01110110
          194 -85 callsubr
          hintmask 01101001
          166 -521 10 callsubr
          hintmask 10101001
          -92 callsubr
          hintmask 01101001
          35 callsubr
        </CharString>
        <CharString name="ugrave">
          -33 callsubr
          353 -79 callsubr
          189 -483 rmoveto
          -89 callgsubr
        </CharString>
        <CharString name="uhungarumlaut">
          -33 callsubr
          315 597 -38 callgsubr
          239 -519 rmoveto
          -89 callgsubr
        </CharString>
        <CharString name="umacron">
          -15 callsubr
          115 50 hstemhm
          97 80 208 80 hintmask 01111100
          436 590 16 callgsubr
          106 -540 10 callsubr
          hintmask 10111100
          -92 callsubr
          hintmask 01111100
          35 callsubr
        </CharString>
        <CharString name="underscore">
          -91 -65 40 hstem
          10 460 vstem
          10 -25 rmoveto
          -40 460 40 vlineto
          endchar
        </CharString>
        <CharString name="uni00AD">
          27 callgsubr
        </CharString>
        <CharString name="uni00B2">
          -61 callsubr
        </CharString>
        <CharString name="uni00B3">
          -71 callsubr
        </CharString>
        <CharString name="uni00B9">
          -27 callgsubr
        </CharString>
        <CharString name="uni0122">
          33 callgsubr
          hstemhm
          55 105 203 44 92 90 -38 -28 callgsubr
          hintmask 11110100
          665 270 rmoveto
          -22 callgsubr
          hintmask 11110010
          -83 callsubr
          hvcurveto
          hintmask 11111100
          20 callsubr
          -319 -280 -99 callsubr
        </CharString>
        <CharString name="uni0123">
          26 callsubr
          75 44 104 85 -9 48 hintmask 1111010010100000
          247 491 rmoveto
          29 24 24 31 29 -22 17 -23 5 hvcurveto
          -15 3 -10 5 10 vvcurveto
          19 22 33 27 28 vhcurveto
          -24 16 rlineto
          -45 -46 -24 -56 -45 vvcurveto
          -42 21 -31 40 vhcurveto
          hintmask 1110110010100000
          156 -57 -6 callgsubr
          hintmask 1111010010100000
          9 callsubr
          hintmask 1111001010100000
          32 callsubr
          hintmask 1111000110100000
          -13 callsubr
          hintmask 1110101011000000
          -34 callsubr
          hintmask 1110110010100000
          60 callgsubr
          hintmask 1111010011000000
          -25 callsubr
          hintmask 1111000110100000
          -20 callsubr
          hintmask 1111010011000000
          50 callgsubr
        </CharString>
        <CharString name="uni0136">
          69 39 callsubr
          166 44 vstem
          609 26 rmoveto
          -30 callgsubr
          41 39 48 callsubr
          -254 -62 -99 callsubr
        </CharString>
        <CharString name="uni0137">
          -61 43 callgsubr
          hstemhm
          106 80 116 44 -36 168 hintmask 11110100
          486 26 rmoveto
          -31 callsubr
          45 42 49 callsubr
          hintmask 11111000
          -201 -62 -99 callsubr
        </CharString>
        <CharString name="uni013B">
          2 callgsubr
          55 44 157 -19 callsubr
          464 200 -53 callsubr
          -238 -236 -99 callsubr
        </CharString>
        <CharString name="uni013C">
          0 26 598 26 hstemhm
          106 80 -34 44 hintmask 11100000
          262 hmoveto
          -36 callgsubr
          hintmask 11010000
          97 -256 -76 callsubr
          endchar
        </CharString>
        <CharString name="uni0145">
          22 callgsubr
          210 44 145 40 vstem
          445 600 -78 callgsubr
          -319 -636 -99 callsubr
        </CharString>
        <CharString name="uni0146">
          11 callsubr
          112 44 47 80 hintmask 10110100
          233 26 rmoveto
          47 callsubr
          hintmask 11010100
          100 3 59 51 54 hhcurveto
          46 41 -36 -73 24 callsubr
          2 callsubr
          hintmask 10110100
          -65 callsubr
          hintmask 10111100
          49 -62 -99 callsubr
        </CharString>
        <CharString name="uni0156">
          0 callgsubr
          135 44 60.6199951172 81.9400024414 vstem
          586 26 rmoveto
          -52 callsubr
          84 hlineto
          -1 callsubr
          -378 278 rmoveto
          270 111 vlineto
          30 callsubr
          4 -340 -99 callsubr
        </CharString>
        <CharString name="uni0157">
          7 callgsubr
          -29 44 hintmask 00000000
          hintmask 11010000
          325 431 -80 callgsubr
          hintmask 10101000
          -184 -467 -99 callsubr
        </CharString>
        <CharString name="uni015E">
          -9 20 callgsubr
          hstem
          335 75 -79 callgsubr
          189 -207 -29 callgsubr
        </CharString>
        <CharString name="uni015F">
          -167 20 callgsubr
          44 callgsubr
          -62 75 hintmask 00000000
          hintmask 11100000
          79 133 -36 callsubr
          vhcurveto
          hintmask 11010000
          -47 callsubr
          hintmask 11100000
          13 callsubr
          101 -144 rmoveto
          -44 -88 14 -9 rlineto
          hintmask 11001000
          -93 callgsubr
          29 65 rlineto
          endchar
        </CharString>
        <CharString name="uni0162">
          11 20 callgsubr
          52 -37 callsubr
          hstemhm
          1 callgsubr
          7 75 97 24 callgsubr
          hintmask 11111101
          542 600 -39 callgsubr
          127 hlineto
          -43 -85 14 -9 rlineto
          hintmask 11111011
          -93 callgsubr
          28 62 rlineto
          153 hlineto
          hintmask 11111101
          -63 callsubr
          -83 548 51 hlineto
          67 28 -54 -50 14 hvcurveto
          19 -67 rlineto
          32 hlineto
          endchar
        </CharString>
        <CharString name="uni0163">
          -240 20 callgsubr
          41 30 380 26 hstem
          96 80 65 75 vstem
          326 399 -22 callsubr
          -72 29 -35 37 -14 vhcurveto
          -41 -82 -73 callgsubr
          24 53 rlineto
          -1 8 9 -1 9 hhcurveto
          49 49 30 85 17 hvcurveto
          -21 callgsubr
          endchar
        </CharString>
        <CharString name="uni0218">
          -9 -256 875 hstem
          294 44 -79 callgsubr
          199 -466 -76 callsubr
          endchar
        </CharString>
        <CharString name="uni0219">
          -167 -256 697 44 callgsubr
          -103 44 -53 callgsubr
          hintmask 10010000
          111 -403 -76 callsubr
          endchar
        </CharString>
        <CharString name="uni021A">
          11 -55 callgsubr
          hstemhm
          1 callgsubr
          -34 44 169 24 callgsubr
          hintmask 11110100
          542 600 -57 callgsubr
          hintmask 11101100
          -262 -439 -99 callsubr
        </CharString>
        <CharString name="uni021B">
          51 callsubr
          hstemhm
          96 80 24 44 hintmask 11100000
          326 399 -52 callgsubr
          hintmask 11110000
          7 -435 -99 callsubr
        </CharString>
        <CharString name="uni02C9">
          28 callgsubr
        </CharString>
        <CharString name="uni0326">
          -571 -256 220 hstem
          -237 44 vstem
          -262 -256 -76 callsubr
          endchar
        </CharString>
        <CharString name="uni2010">
          -227 187 47 hstem
          43 228 vstem
          43 187 rmoveto
          47 228 -47 vlineto
          endchar
        </CharString>
        <CharString name="uogonek">
          -4 57 callgsubr
          43 -33 -9 callgsubr
          hstemhm
          97 80 193 76 -61 80 hintmask 00000000
          hintmask 10111100
          543 -3 callsubr
          hintmask 10111010
          -61 callgsubr
          hintmask 11011010
          -92 callsubr
          hintmask 10111010
          7 -102 rlineto
          107 hlineto
          hintmask 10111100
          -32 callgsubr
          endchar
        </CharString>
        <CharString name="uring">
          -15 callsubr
          57 65 callsubr
          hstemhm
          97 80 4 54 101 54 -5 80 57 callsubr
          hintmask 0111101100000000
          283 482 -45 callsubr
          hintmask 0111110010000000
          257 -642 10 callsubr
          hintmask 1011110010000000
          -92 callsubr
          hintmask 0111110010000000
          35 callsubr
        </CharString>
        <CharString name="v">
          -106 399 26 hstemhm
          3 194 113 152 hintmask 00000000
          hintmask 11100000
          310 425 66 callgsubr
          -125 -335 -125 335 rlineto
          64 26 -194 -26 46 hlineto
          122 -334 rlineto
          -60 22 15 -10 37 hhcurveto
          13 hlineto
          141 370 rlineto
          28 11 4 21 callgsubr
        </CharString>
        <CharString name="vertical_stem_upper">
          -401 0 600 hstem
          40 90 vstem
          40 hmoveto
          90 600 -90 hlineto
          endchar
        </CharString>
        <CharString name="w">
          113 399 26 hstemhm
          5 198 336 145 hintmask 00000000
          hintmask 11100000
          539 425 rmoveto
          -26 67 vlineto
          -109 -337 -115 337 rlineto
          51 26 -139 hlineto
          45 -127 -80 -240 -125 341 rlineto
          69 26 -198 -26 46 hlineto
          125 -334 rlineto
          -61 23 13 -9 34 hhcurveto
          20 hlineto
          87 262 67 -192 rlineto
          -61 21 11 -9 34 hhcurveto
          16 hlineto
          121 369 rlineto
          29 9 8 6 18 hhcurveto
          16 10 2 24 hvcurveto
          endchar
        </CharString>
        <CharString name="x">
          -137 -4 callgsubr
          hstemhm
          0 197 -197 434 -433 159 108 157 hintmask 11010000
          410 26 rmoveto
          -18 hlineto
          -140 201 rlineto
          hintmask 11100100
          103 143 rlineto
          19 14 14 19 callsubr
          -7 callgsubr
          hlineto
          -108 -150 -104 150 rlineto
          64 26 -197 -26 46 hlineto
          137 -195 rlineto
          hintmask 11001000
          -114 -149 rlineto
          -20 -16 -12 -9 -20 hhcurveto
          -12 -8 -6 -20 hvcurveto
          159 26 -79 hlineto
          118 155 110 -155 rlineto
          -61 -26 186 hlineto
          hintmask 11010000
          24 -5 2 -19 vhcurveto
          endchar
        </CharString>
        <CharString name="y">
          51 callgsubr
          hstemhm
          7 195 125 152 hintmask 00000000
          hintmask 11110000
          327 425 66 callgsubr
          -70 callsubr
        </CharString>
        <CharString name="yacute">
          51 callgsubr
          hstemhm
          -1 480 -472 195 hintmask 11100000
          368 -87 callgsubr
          -41 -158 66 callgsubr
          hintmask 11010000
          -70 callsubr
        </CharString>
        <CharString name="ydieresis">
          51 callgsubr
          96 100 hstemhm
          7 195 -93 58 callsubr
          hintmask 11101100
          160 -85 callsubr
          -15 -96 66 callgsubr
          hintmask 11110100
          -70 callsubr
        </CharString>
        <CharString name="z">
          10 callgsubr
          375 151 -77 callgsubr
        </CharString>
        <CharString name="zacute">
          10 callgsubr
          301 -87 callgsubr
          74 -432 -77 callgsubr
        </CharString>
        <CharString name="zcaron">
          10 callgsubr
          212 -75 callgsubr
          163 -350 -77 callgsubr
        </CharString>
        <CharString name="zdotaccent">
          -149 0 26 378 26 86 110 hstem
          156 109 110 15.5 vstem
          211 -56 callgsubr
          164 -365 -77 callgsubr
        </CharString>
        <CharString name="zero">
          34 -14 callgsubr
          285 105 vstem
          550 300 rmoveto
          207 -106 103 -137 -138 -114 -108 -198 -205 108 -109 139 138 110 112 198 vhcurveto
          -105 4 rmoveto
          -204 -45 -82 -95 -95 -50 72 210 208 49 74 95 95 46 -65 -213 vhcurveto
          endchar
        </CharString>
      <CharString index="0">
        -105 callgsubr
        -87 callsubr
        return
      </CharString>
      <CharString index="1">
        8 8 5 10 10 vvcurveto
        23 -23 22 -23 -10 -10 -4 -9 -9 vhcurveto
        -24 -24 -29 -66 -49 -53 return
      </CharString>
      <CharString index="2">
        rmoveto
        -104 callgsubr
        -56 -26 -49 -31 -57 hhcurveto
        return
      </CharString>
      <CharString index="3">
        -79 -54 62 140 -3 hvcurveto
        115 -2 rlineto
        111 -2 73 7 75 vvcurveto
        78 -80 59 -102 -143 -64 -111 -115 -141 97 -78 113 83 64 39 71 27 vhcurveto
        -26 5 rlineto
        return
      </CharString>
      <CharString index="4">
        rmoveto
        42 21 47 88 78 hvcurveto
        -13 15 -37 -24 -56 -32 -36 -18 rlinecurve
        -86 callgsubr
        return
      </CharString>
      <CharString index="5">
        -86 callsubr
        182 -85 callgsubr
        return
      </CharString>
      <CharString index="6">
        rmoveto
        -99 callgsubr
        224 -49 callsubr
        return
      </CharString>
      <CharString index="7">
        rmoveto
        -68 callsubr
        hvcurveto
        -94 callsubr
        vhcurveto
        return
      </CharString>
      <CharString index="8">
        -32 hlineto
        -229 574 rlineto
        -42 hlineto
        -224 -574 -93 callsubr
        return
      </CharString>
      <CharString index="9">
        -18 callgsubr
        -105 callsubr
        return
      </CharString>
      <CharString index="10">
        -55 callsubr
        -106 -58 58 155 vhcurveto
        -89 callsubr
        return
      </CharString>
      <CharString index="11">
        rmoveto
        16 17 -49 53 -29 66 -24 24 rlinecurve
        9 -9 -10 4 -10 hhcurveto
        -23 -23 -22 -23 -10 5 -10 8 -8 hvcurveto
        25 -25 66 -29 57 -46 rrcurveto
        return
      </CharString>
      <CharString index="12">
        -97 callgsubr
        endchar
      </CharString>
      <CharString index="13">
        rmoveto
        -10 callgsubr
        -98 callsubr
      </CharString>
      <CharString index="14">
        11 15 19 6 17 hhcurveto
        30 25 -17 -40 -44 -27 -24 -32 -23 -27 13 27 -20 hvcurveto
        -16 -12 rlineto
        -37 23 41 -16 40 hhcurveto
        59 57 34 57 55 -51 29 -52 -18 -18 -3 -7 -16 hvcurveto
        return
      </CharString>
      <CharString index="15">
        rmoveto
        -123 11 60 -69 104 hhcurveto
        71 66 41 74 hvcurveto
        152 -336 -36 203 vvcurveto
        102 101 58 110 55 61 -13 -28 47 vhcurveto
        35 5 13 25 vhcurveto
        -194 -29 vlineto
        106 2 -84 53 -78 hhcurveto
        -65 -60 -39 -67 hvcurveto
        -153 338 39 -207 vvcurveto
        -109 -108 -58 -116 -62 -65 17 34 -51 vhcurveto
        -36 -2 -7 -28 vhcurveto
        212 vlineto
        return
      </CharString>
      <CharString index="16">
        rmoveto
        -11 callsubr
        12 16 rcurveline
        -82 callgsubr
        return
      </CharString>
      <CharString index="17">
        631 -103 callgsubr
        return
      </CharString>
      <CharString index="18">
        -61 callgsubr
        hintmask 10111000
        -92 callsubr
        hintmask 01111000
        35 callsubr
      </CharString>
      <CharString index="19">
        rmoveto
        57 46 66 29 25 25 rrcurveto
        -106 callgsubr
        rrcurveto
        return
      </CharString>
      <CharString index="20">
        583 -107 callsubr
        return
      </CharString>
      <CharString index="21">
        -34 18 -56 30 -39 27 -13 -17 rcurveline
        -87 79 22 -47 42 hhcurveto
        return
      </CharString>
      <CharString index="22">
        hmoveto
        28 22 21 29 28 -22 22 -28 -28 -22 -22 -28 -29 22 -21 28 hvcurveto
        return
      </CharString>
      <CharString index="23">
        651 -102 callgsubr
        return
      </CharString>
      <CharString index="24">
        rmoveto
        41 42 22 51 41 vvcurveto
        38 -19 28 -36 -27 -21 -22 -28 -26 20 -16 20 -4 vhcurveto
        14 -3 9 -5 -9 vvcurveto
        -17 -20 -30 -24 -25 vhcurveto
        return
      </CharString>
      <CharString index="25">
        83 -75 -19 45 -40 hhcurveto
        -72 callgsubr
        return
      </CharString>
      <CharString index="26">
        -96 -28 82 116 117 28 80 93 96 26 -80 -113 -118 -26 -84 -93 hvcurveto
        return
      </CharString>
      <CharString index="27">
        rmoveto
        -47 -65 -33 -71 -27 hvcurveto
        hintmask 10110000
        -4 98 -64 callgsubr
        249 vlineto
        44 callsubr
        198 hlineto
        hintmask 11010000
        107 63 61 25 vhcurveto
        30 -5 -59 48 hhcurveto
        30 15 19 22 27 -23 30 -45 hvcurveto
        return
      </CharString>
      <CharString index="28">
        vstem
        98 210 -92 callgsubr
        return
      </CharString>
      <CharString index="29">
        rmoveto
        -26 92 -438 vlineto
        -375 464 rlineto
        -137 -38 callsubr
        456 hlineto
        388 -487 51 10 rlineto
        569 73 26 vlineto
        return
      </CharString>
      <CharString index="30">
        rmoveto
        -13 -55 rlineto
        -34 -8 -21 -36 -40 hhcurveto
        -173 hlineto
        268 383 rlineto
        21 -342 vlineto
        -9 -130 rlineto
        15 hlineto
        26 55 rlineto
        35 17 17 14 30 hhcurveto
        156 hlineto
        -278 -382 rlineto
        -22 369 vlineto
        3 151 rlineto
        endchar
      </CharString>
      <CharString index="31">
        -4 callsubr
        -19 vhcurveto
        return
      </CharString>
      <CharString index="32">
        501 -103 callgsubr
        return
      </CharString>
      <CharString index="33">
        rmoveto
        30 24 24 31 30 -24 25 -30 -31 -24 -25 -30 -31 24 -24 31 hvcurveto
        return
      </CharString>
      <CharString index="34">
        14 -9 rlineto
        -93 callgsubr
        return
      </CharString>
      <CharString index="35">
        -40 -18 -45 -84 -74 hvcurveto
        12 -14 41 27 49 27 32 16 rlinecurve
        return
      </CharString>
      <CharString index="36">
        -40 callsubr
        hintmask 00000000
        hintmask 10111110
        451 95 -103 callsubr
      </CharString>
      <CharString index="37">
        rmoveto
        -1 callsubr
        -52 callsubr
        hlineto
        111 299 rmoveto
        30 callsubr
        -114 270 hlineto
        endchar
      </CharString>
      <CharString index="38">
        700 -91 callgsubr
        return
      </CharString>
      <CharString index="39">
        rmoveto
        63 32 69 14 29 19 9 5 6 9 2 10 5 22 -17 25 -22 4 -10 2 -10 0 -10 -8 -28 -17 -41 -58 -56 -40 rrcurveto
        return
      </CharString>
      <CharString index="40">
        -118 -25 -85 -60 -91 hhcurveto
        -105 -90 69 -45 callgsubr
        -83 callsubr
        48 47 12 24 37 hvcurveto
        return
      </CharString>
      <CharString index="41">
        -52 399 14 callsubr
        -321 -11 callgsubr
        return
      </CharString>
      <CharString index="42">
        -26 83 -548 -83 -26 return
      </CharString>
      <CharString index="43">
        rlineto
        -152 -26 77 -321 hlineto
        -42 -35 -26 callgsubr
        return
      </CharString>
      <CharString index="44">
        -67 callsubr
        vlineto
        endchar
      </CharString>
      <CharString index="45">
        -65 callsubr
        47 callsubr
        return
      </CharString>
      <CharString index="46">
        -30 callsubr
        -53 399 -7 callgsubr
        -215 hlineto
        return
      </CharString>
      <CharString index="47">
        -66 8 31 -27 46 hhcurveto
        58 25 36 68 3 hvcurveto
        return
      </CharString>
      <CharString index="48">
        -148 -152 -108 -198 return
      </CharString>
      <CharString index="49">
        25 7 9 20 vhcurveto
        -125 -25 vlineto
        -2 20 rlineto
        41 -42 33 -59 -49 -44 -23 -47 vhcurveto
        -110 238 28 -149 vvcurveto
        -84 -77 -35 -81 return
      </CharString>
      <CharString index="50">
        -39 callgsubr
        305 -49 callsubr
        -83 548 51 hlineto
        67 28 -54 -50 14 hvcurveto
        19 -67 rlineto
        32 hlineto
        return
      </CharString>
      <CharString index="51">
        516 -74 callgsubr
        return
      </CharString>
      <CharString index="52">
        0 -37 callsubr
        return
      </CharString>
      <CharString index="53">
        -77 59 -38 65 58 64 31 62 25 vhcurveto
        return
      </CharString>
      <CharString index="54">
        53 callgsubr
        79 133 -36 callsubr
        vhcurveto
        hintmask 10100000
        -47 callsubr
        hintmask 11000000
        13 callsubr
        return
      </CharString>
      <CharString index="55">
        -22 callsubr
        -102 57 -27 58 49 49 30 85 17 vhcurveto
        -21 callgsubr
        return
      </CharString>
      <CharString index="56">
        -60 callsubr
        hstem
        40 40 callsubr
        vstem
        return
      </CharString>
      <CharString index="57">
        104 0 26 264 40 244 32 callgsubr
        -244 -66 -40 66 -264 -41 callsubr
        264 124 40 -124 244 -12 callgsubr
      </CharString>
      <CharString index="58">
        8 7 4 10 10 vvcurveto
        22 -22 21 -22 -10 -10 -3 -9 -8 vhcurveto
        -24 -23 -28 -65 -47 -51 return
      </CharString>
      <CharString index="59">
        189 -335 -3 -213 rlineto
        -83 67 callgsubr
        hlineto
        4 callgsubr
        hlineto
        3 223 150 297 rlineto
        18 9 29 19 callsubr
        endchar
      </CharString>
      <CharString index="60">
        -26 220 vlineto
        4 callgsubr
        247 hlineto
        return
      </CharString>
      <CharString index="61">
        rmoveto
        89 33 63 66 hvcurveto
        -21 hlineto
        -56 -11 -44 -9 -43 hhcurveto
        -49 -46 12 53 -11 hvcurveto
        -20 hlineto
        -66 35 -63 88 vhcurveto
        return
      </CharString>
      <CharString index="62">
        210 208 87 74 105 return
      </CharString>
      <CharString index="63">
        -23 callgsubr
        -27 callsubr
        return
      </CharString>
      <CharString index="64">
        vvcurveto
        -41 36 -34 60 31 33 11 26 25 vhcurveto
        return
      </CharString>
      <CharString index="65">
        rmoveto
        93 242 94 -242 rlineto
        endchar
      </CharString>
      <CharString index="66">
        -83 callgsubr
        150 -15 -83 callgsubr
        endchar
      </CharString>
      <CharString index="67">
        rmoveto
        79 16 33 28 40 57 25 -59 40 hhcurveto
        27 19 17 40 11 hvcurveto
        21 -5 rlineto
        -79 -16 -34 -28 -40 -57 -26 59 -40 hhcurveto
        -27 -18 -17 -40 -11 hvcurveto
        return
      </CharString>
      <CharString index="68">
        rmoveto
        -502 hlineto
        -5 -197 rlineto
        32 hlineto
        19 67 rlineto
        50 14 28 54 67 hhcurveto
        51 -548 -107 -26 return
      </CharString>
      <CharString index="69">
        rmoveto
        -49 callgsubr
        15 -16 rcurveline
        55 44 65 28 24 25 rrcurveto
        -1 -97 -68 callgsubr
        return
      </CharString>
      <CharString index="70">
        -16 callsubr
        -24 callgsubr
        return
      </CharString>
      <CharString index="71">
        3 callgsubr
        -26 76 17 callsubr
        -26 vlineto
        return
      </CharString>
      <CharString index="72">
        -7 callsubr
        -48 callgsubr
      </CharString>
      <CharString index="73">
        -32 -44 callgsubr
        return
      </CharString>
      <CharString index="74">
        -32 callsubr
        -1 9 rlineto
        -122 -22 -49 -56 -47 -43 callgsubr
        return
      </CharString>
      <CharString index="75">
        -93 -26 -38 -48 -42 -43 callgsubr
        return
      </CharString>
      <CharString index="76">
        -42 -34 -26 callgsubr
        return
      </CharString>
      <CharString index="77">
        -27 hlineto
        -263 342 175 164 rlineto
        24 26 19 18 25 hhcurveto
        29 2 -2 28 hvcurveto
        -180 -26 80 hlineto
        -289 -266 rlineto
        266 -3 callgsubr
        236 hlineto
        return
      </CharString>
      <CharString index="78">
        rmoveto
        -44 -88 -73 callgsubr
        29 65 rlineto
        endchar
      </CharString>
      <CharString index="79">
        27.5 return
      </CharString>
      <CharString index="80">
        -113 0 30.5 hstem
        212 88 vstem
        300 600 rmoveto
        -61 hlineto
        -219 -135 18 -29 174 102 rlineto
        -503 vlineto
        -157 -9 rlineto
        -26 379 vlineto
        19 -11 5 -20 2 vhcurveto
        -103 9 rlineto
        endchar
      </CharString>
      <CharString index="81">
        -10 -42 vhcurveto
        -26 return
      </CharString>
      <CharString index="82">
        rmoveto
        -285 -26 76 -548 -41 callsubr
        548 -12 callgsubr
      </CharString>
      <CharString index="83">
        108 -79 -118 -5 85 hvcurveto
        30 -2 17 20 23 vvcurveto
        60 -85 47 -82 return
      </CharString>
      <CharString index="84">
        0 -20 callgsubr
        return
      </CharString>
      <CharString index="85">
        -249 -26 83 -160 hlineto
        -42 -38 -52 -21 -54 hhcurveto
        -112 -83 69 -45 callgsubr
        hvcurveto
        return
      </CharString>
      <CharString index="86">
        -27 5 rlineto
        -65 -17 -27 -25 -29 hhcurveto
        -30 -20 25 52 hvcurveto
        303 vlineto
        return
      </CharString>
      <CharString index="87">
        26 269 26 callgsubr
        return
      </CharString>
      <CharString index="88">
        0 callgsubr
        239.619995117 81.9400024414 vstem
        return
      </CharString>
      <CharString index="89">
        -50 -4 -14 -24 -21 hhcurveto
        return
      </CharString>
      <CharString index="90">
        -30 -45 -45 -80 -36 -48 18 -16 rcurveline
        55 56 85 -2 callsubr
        -85 76 -51 55 -18 -17 rcurveline
        37 -50 45 -78 29 -45 rrcurveto
        return
      </CharString>
      <CharString index="91">
        rmoveto
        -74 -38 73 111 133 55 63 69 67 49 -60 -117 -116 -48 -87 -80 hvcurveto
        endchar
      </CharString>
      <CharString index="92">
        90 276 -19 callsubr
        return
      </CharString>
      <CharString index="93">
        8 callsubr
        hstem
        55 105 return
      </CharString>
      <CharString index="94">
        rmoveto
        -33 callgsubr
        -12 15 rlineto
        4 callsubr
        endchar
      </CharString>
      <CharString index="95">
        116 hlineto
        105 93 -57 66 callsubr
        -90 -74 -105 hvcurveto
        endchar
      </CharString>
      <CharString index="96">
        hlineto
        -31 callgsubr
        return
      </CharString>
      <CharString index="97">
        -51 -15 -34 -56 -67 hhcurveto
        return
      </CharString>
      <CharString index="98">
        26 373 26 return
      </CharString>
      <CharString index="99">
        -40 -33 -28 -79 -16 hvcurveto
        20 -5 rlineto
        40 11 18 17 27 hhcurveto
        return
      </CharString>
      <CharString index="100">
        -157 -26 77 return
      </CharString>
      <CharString index="101">
        rmoveto
        23 7 -23 22 hhcurveto
        20 11 15 16 22 -18 25 -40 -37 -38 -31 -46 -15 hvcurveto
        return
      </CharString>
      <CharString index="102">
        58 callgsubr
        186 80 66 26 return
      </CharString>
      <CharString index="103">
        0 -9 callgsubr
        return
      </CharString>
      <CharString index="104">
        83 26 -249 -26 76 -548 -76 39 callgsubr
        -59 return
      </CharString>
      <CharString index="105">
        17 callgsubr
        hlineto
        43 callsubr
        return
      </CharString>
      <CharString index="106">
        -76 -27 -29 rrcurveto
        -8 -9 -5 -10 0 -11 0 -11 4 -11 -10 flex1
        23 -27 return
      </CharString>
      <CharString index="107">
        54 0 26 249 29 270 47 callgsubr
        return
      </CharString>
      <CharString index="108">
        37.5 24 callgsubr
        179 90 return
      </CharString>
      <CharString index="109">
        -72 -59 callsubr
        118 90 return
      </CharString>
      <CharString index="110">
        34 callgsubr
        624 -156 return
      </CharString>
      <CharString index="111">
        -63 callsubr
        -51 return
      </CharString>
      <CharString index="112">
        rmoveto
        33 callsubr
        38 callsubr
        vhcurveto
        25 callgsubr
        return
      </CharString>
      <CharString index="113">
        50 -10 31 561 65 callgsubr
        391 -28 callgsubr
        vstem
        return
      </CharString>
      <CharString index="114">
        -173 0 26 366 39 -32 60 callsubr
        return
      </CharString>
      <CharString index="115">
        18 callsubr
        -38 -12 36 32 return
      </CharString>
      <CharString index="116">
        11 callsubr
        203 80 hintmask 10111000
        return
      </CharString>
      <CharString index="117">
        -149 0 26 378 26 hstem
        375 15.5 vstem
        return
      </CharString>
      <CharString index="118">
        91 -10 28 556 26 return
      </CharString>
      <CharString index="119">
        40 95 243 95 return
      </CharString>
      <CharString index="120">
        148 -107 74 -107 return
      </CharString>
      <CharString index="121">
        hlineto
        33 -30 -43 19 -54 hhcurveto
        -133 -67 -118 -115 hvcurveto
        return
      </CharString>
      <CharString index="122">
        rmoveto
        -66 callgsubr
        232 vlineto
        55 callgsubr
      </CharString>
      <CharString index="123">
        rmoveto
        -300 -50 300 hlineto
        return
      </CharString>
      <CharString index="124">
        -39 callsubr
        256 return
      </CharString>
      <CharString index="125">
        0 0 26 366 43 -36 26 return
      </CharString>
      <CharString index="126">
        50 -37 39 -65 -67 -40 -38 -52 return
      </CharString>
      <CharString index="127">
        -227 25 125 25 return
      </CharString>
      <CharString index="128">
        6 23 hhcurveto
        18 7 1 25 hvcurveto
        endchar
      </CharString>
      <CharString index="129">
        99 -59 callsubr
        98 40 return
      </CharString>
      <CharString index="130">
        -26 -5 -5 -22 vhcurveto
        152 27 vlineto
        return
      </CharString>
      <CharString index="131">
        29.5 return
      </CharString>
      <CharString index="132">
        -14 3 -9 5 9 vvcurveto
        17 20 30 24 25 vhcurveto
        return
      </CharString>
      <CharString index="133">
        29 250 26 return
      </CharString>
      <CharString index="134">
        -191 200 40 hstem
        50 280 vstem
        50 240 rmoveto
        -40 280 40 vlineto
        endchar
      </CharString>
      <CharString index="135">
        -71 540 50 hstem
        100 300 vstem
        100 590 34 callsubr
        endchar
      </CharString>
      <CharString index="136">
        -107 58 -105 113 60 64 29 84 33 vhcurveto
        return
      </CharString>
      <CharString index="137">
        0 26 598 26 50 callsubr
        return
      </CharString>
      <CharString index="138">
        26 194 29 return
      </CharString>
      <CharString index="139">
        61 callsubr
        325 600 rmoveto
        -285 -26 76 return
      </CharString>
      <CharString index="140">
        129 -10 31 223 26 312 28 return
      </CharString>
      <CharString index="141">
        -76 callgsubr
        -52 return
      </CharString>
      <CharString index="142">
        -148 -64 -109 -118 return
      </CharString>
      <CharString index="143">
        -17 -25 -33 24 -58 4 -72 vhcurveto
        27 hlineto
        4 69 24 62 33 vvcurveto
        return
      </CharString>
      <CharString index="144">
        106 144 -106 hhcurveto
        -34 -18 -21 -28 return
      </CharString>
      <CharString index="145">
        rlineto
        23 hlineto
        18 56 rlineto
        41 13 24 return
      </CharString>
      <CharString index="146">
        67 callgsubr
        -54 callsubr
        return
      </CharString>
      <CharString index="147">
        -32 -23 callgsubr
        return
      </CharString>
      <CharString index="148">
        26 rmoveto
        -47 callgsubr
        return
      </CharString>
      <CharString index="149">
        -4 -59 callsubr
        245.5 90 vstem
        return
      </CharString>
      <CharString index="150">
        -4 callgsubr
        199 26 return
      </CharString>
      <CharString index="151">
        hstemhm
        79 210 -165 194 return
      </CharString>
      <CharString index="152">
        -191 29 162 26 return
      </CharString>
      <CharString index="153">
        89 -31 10 204 rlineto
        return
      </CharString>
      <CharString index="154">
        26 hstem
        41 callsubr
        return
      </CharString>
      <CharString index="155">
        hvcurveto
        -205 vlineto
        return
      </CharString>
      <CharString index="156">
        22 callgsubr
        399 40 vstem
        return
      </CharString>
      <CharString index="157">
        -3 11 11 -2 13 hhcurveto
        endchar
      </CharString>
      <CharString index="158">
        -87 -190 31 558 26 return
      </CharString>
      <CharString index="159">
        -250 -55 callgsubr
        return
      </CharString>
      <CharString index="160">
        hintmask 00000000
        hintmask 11000000
        return
      </CharString>
      <CharString index="161">
        hlineto
        -27 -205 rlineto
        30 hlineto
        27 205 rlineto
        return
      </CharString>
      <CharString index="162">
        -76 callgsubr
        endchar
      </CharString>
      <CharString index="163">
        16 379 hstem
        25 return
      </CharString>
      <CharString index="164">
        -191 29 152 return
      </CharString>
      <CharString index="165">
        hstemhm
        35 84 return
      </CharString>
      <CharString index="166">
        24 185 rlineto
        -30 hlineto
        -24 -185 rlineto
        return
      </CharString>
      <CharString index="167">
        22 6 17 15 19 hhcurveto
        return
      </CharString>
      <CharString index="168">
        34 14 35 36 return
      </CharString>
      <CharString index="169">
        200 hstem
        98 40 89 40 vstem
        75 return
      </CharString>
      <CharString index="170">
        100 hintmask 00000000
        hintmask 11110100
        return
      </CharString>
      <CharString index="171">
        55 105 385 105 return
      </CharString>
      <CharString index="172">
        28 hstem
        55 105 return
      </CharString>
      <CharString index="173">
        rmoveto
        -26 73 vlineto
        return
      </CharString>
      <CharString index="174">
        -26 249 return
      </CharString>
</ttFont>
